  0
SECTION
  2
HEADER
  9
$ACADVER
  1
AC1015
  9
$ACADMAINTVER
 70
6
  9
$DWGCODEPAGE
  3
ANSI_1252
  9
$INSBASE
 10
0.0
 20
0.0
 30
0.0
  9
$EXTMIN
 10
1e+20
 20
1e+20
 30
1e+20
  9
$EXTMAX
 10
-1e+20
 20
-1e+20
 30
-1e+20
  9
$LIMMIN
 10
0.0
 20
0.0
  9
$LIMMAX
 10
420.0
 20
297.0
  9
$ORTHOMODE
 70
0
  9
$REGENMODE
 70
1
  9
$FILLMODE
 70
1
  9
$QTEXTMODE
 70
0
  9
$MIRRTEXT
 70
1
  9
$LTSCALE
 40
20.0
  9
$ATTMODE
 70
1
  9
$TEXTSIZE
 40
2.5
  9
$TRACEWID
 40
1.0
  9
$TEXTSTYLE
  7
OpenSans
  9
$CLAYER
  8
0
  9
$CELTYPE
  6
ByLayer
  9
$CECOLOR
 62
256
  9
$CELTSCALE
 40
1.0
  9
$DISPSILH
 70
0
  9
$DIMSCALE
 40
1.0
  9
$DIMASZ
 40
0.175
  9
$DIMEXO
 40
0.125
  9
$DIMDLI
 40
3.75
  9
$DIMRND
 40
0.0
  9
$DIMDLE
 40
0.0
  9
$DIMEXE
 40
0.375
  9
$DIMTP
 40
0.0
  9
$DIMTM
 40
0.0
  9
$DIMTXT
 40
0.25
  9
$DIMCEN
 40
2.5
  9
$DIMTSZ
 40
0.0
  9
$DIMTOL
 70
0
  9
$DIMLIM
 70
0
  9
$DIMTIH
 70
0
  9
$DIMTOH
 70
0
  9
$DIMSE1
 70
0
  9
$DIMSE2
 70
0
  9
$DIMTAD
 70
1
  9
$DIMZIN
 70
12
  9
$DIMBLK
  1
ARCHTICK
  9
$DIMASO
 70
1
  9
$DIMSHO
 70
1
  9
$DIMPOST
  1

  9
$DIMAPOST
  1

  9
$DIMALT
 70
0
  9
$DIMALTD
 70
3
  9
$DIMALTF
 40
0.03937007874
  9
$DIMLFAC
 40
100.0
  9
$DIMTOFL
 70
1
  9
$DIMTVP
 40
0.0
  9
$DIMTIX
 70
0
  9
$DIMSOXD
 70
0
  9
$DIMSAH
 70
0
  9
$DIMBLK1
  1

  9
$DIMBLK2
  1

  9
$DIMSTYLE
  2
EZDXF
  9
$DIMCLRD
 70
0
  9
$DIMCLRE
 70
0
  9
$DIMCLRT
 70
0
  9
$DIMTFAC
 40
0.5
  9
$DIMGAP
 40
0.1
  9
$DIMJUST
 70
0
  9
$DIMSD1
 70
0
  9
$DIMSD2
 70
0
  9
$DIMTOLJ
 70
0
  9
$DIMTZIN
 70
8
  9
$DIMALTZ
 70
0
  9
$DIMALTTZ
 70
0
  9
$DIMUPT
 70
1
  9
$DIMDEC
 70
2
  9
$DIMTDEC
 70
2
  9
$DIMALTU
 70
2
  9
$DIMALTTD
 70
3
  9
$DIMTXSTY
  7
OpenSansCondensed-Light
  9
$DIMAUNIT
 70
0
  9
$DIMADEC
 70
2
  9
$DIMALTRND
 40
0.0
  9
$DIMAZIN
 70
3
  9
$DIMDSEP
 70
46
  9
$DIMATFIT
 70
3
  9
$DIMFRAC
 70
0
  9
$DIMLDRBLK
  1

  9
$DIMLUNIT
 70
2
  9
$DIMLWD
 70
-2
  9
$DIMLWE
 70
-2
  9
$DIMTMOVE
 70
2
  9
$LUNITS
 70
2
  9
$LUPREC
 70
4
  9
$SKETCHINC
 40
1.0
  9
$FILLETRAD
 40
10.0
  9
$AUNITS
 70
0
  9
$AUPREC
 70
2
  9
$MENU
  1
.
  9
$ELEVATION
 40
0.0
  9
$PELEVATION
 40
0.0
  9
$THICKNESS
 40
0.0
  9
$LIMCHECK
 70
0
  9
$CHAMFERA
 40
0.0
  9
$CHAMFERB
 40
0.0
  9
$CHAMFERC
 40
0.0
  9
$CHAMFERD
 40
0.0
  9
$SKPOLY
 70
0
  9
$TDCREATE
 40
2451545.0
  9
$TDUCREATE
 40
2451545.0
  9
$TDUPDATE
 40
2451545.0
  9
$TDUUPDATE
 40
2451545.0
  9
$TDINDWG
 40
0.0
  9
$TDUSRTIMER
 40
0.0
  9
$USRTIMER
 70
1
  9
$ANGBASE
 50
0.0
  9
$ANGDIR
 70
0
  9
$PDMODE
 70
0
  9
$PDSIZE
 40
0.0
  9
$PLINEWID
 40
0.0
  9
$SPLFRAME
 70
0
  9
$SPLINETYPE
 70
6
  9
$SPLINESEGS
 70
8
  9
$HANDSEED
  5
29B
  9
$SURFTAB1
 70
6
  9
$SURFTAB2
 70
6
  9
$SURFTYPE
 70
6
  9
$SURFU
 70
6
  9
$SURFV
 70
6
  9
$UCSBASE
  2

  9
$UCSNAME
  2

  9
$UCSORG
 10
0.0
 20
0.0
 30
0.0
  9
$UCSXDIR
 10
1.0
 20
0.0
 30
0.0
  9
$UCSYDIR
 10
0.0
 20
1.0
 30
0.0
  9
$UCSORTHOREF
  2

  9
$UCSORTHOVIEW
 70
0
  9
$UCSORGTOP
 10
0.0
 20
0.0
 30
0.0
  9
$UCSORGBOTTOM
 10
0.0
 20
0.0
 30
0.0
  9
$UCSORGLEFT
 10
0.0
 20
0.0
 30
0.0
  9
$UCSORGRIGHT
 10
0.0
 20
0.0
 30
0.0
  9
$UCSORGFRONT
 10
0.0
 20
0.0
 30
0.0
  9
$UCSORGBACK
 10
0.0
 20
0.0
 30
0.0
  9
$PUCSBASE
  2

  9
$PUCSNAME
  2

  9
$PUCSORG
 10
0.0
 20
0.0
 30
0.0
  9
$PUCSXDIR
 10
1.0
 20
0.0
 30
0.0
  9
$PUCSYDIR
 10
0.0
 20
1.0
 30
0.0
  9
$PUCSORTHOREF
  2

  9
$PUCSORTHOVIEW
 70
0
  9
$PUCSORGTOP
 10
0.0
 20
0.0
 30
0.0
  9
$PUCSORGBOTTOM
 10
0.0
 20
0.0
 30
0.0
  9
$PUCSORGLEFT
 10
0.0
 20
0.0
 30
0.0
  9
$PUCSORGRIGHT
 10
0.0
 20
0.0
 30
0.0
  9
$PUCSORGFRONT
 10
0.0
 20
0.0
 30
0.0
  9
$PUCSORGBACK
 10
0.0
 20
0.0
 30
0.0
  9
$USERI1
 70
0
  9
$USERI2
 70
0
  9
$USERI3
 70
0
  9
$USERI4
 70
0
  9
$USERI5
 70
0
  9
$USERR1
 40
0.0
  9
$USERR2
 40
0.0
  9
$USERR3
 40
0.0
  9
$USERR4
 40
0.0
  9
$USERR5
 40
0.0
  9
$WORLDVIEW
 70
1
  9
$SHADEDGE
 70
3
  9
$SHADEDIF
 70
70
  9
$TILEMODE
 70
1
  9
$MAXACTVP
 70
64
  9
$PINSBASE
 10
0.0
 20
0.0
 30
0.0
  9
$PLIMCHECK
 70
0
  9
$PEXTMIN
 10
1e+20
 20
1e+20
 30
1e+20
  9
$PEXTMAX
 10
-1e+20
 20
-1e+20
 30
-1e+20
  9
$PLIMMIN
 10
0.0
 20
0.0
  9
$PLIMMAX
 10
420.0
 20
297.0
  9
$UNITMODE
 70
0
  9
$VISRETAIN
 70
1
  9
$PLINEGEN
 70
0
  9
$PSLTSCALE
 70
1
  9
$TREEDEPTH
 70
3020
  9
$CMLSTYLE
  2
Standard
  9
$CMLJUST
 70
0
  9
$CMLSCALE
 40
20.0
  9
$PROXYGRAPHICS
 70
1
  9
$MEASUREMENT
 70
1
  9
$CELWEIGHT
370
-1
  9
$ENDCAPS
280
0
  9
$JOINSTYLE
280
0
  9
$LWDISPLAY
290
0
  9
$INSUNITS
 70
5
  9
$HYPERLINKBASE
  1

  9
$STYLESHEET
  1

  9
$XEDIT
290
1
  9
$CEPSNTYPE
380
0
  9
$PSTYLEMODE
290
1
  9
$FINGERPRINTGUID
  2
{00000000-0000-0000-0000-000000000000}
  9
$VERSIONGUID
  2
{00000000-0000-0000-0000-000000000000}
  9
$EXTNAMES
290
1
  9
$PSVPSCALE
 40
0.0
  9
$OLESTARTUP
290
0
  0
ENDSEC
  0
SECTION
  2
CLASSES
  0
CLASS
  1
ACDBDICTIONARYWDFLT
  2
AcDbDictionaryWithDefault
  3
ObjectDBX Classes
 90
0
280
0
281
0
  0
CLASS
  1
ACDBPLACEHOLDER
  2
AcDbPlaceHolder
  3
ObjectDBX Classes
 90
0
280
0
281
0
  0
CLASS
  1
DICTIONARYVAR
  2
AcDbDictionaryVar
  3
ObjectDBX Classes
 90
0
280
0
281
0
  0
CLASS
  1
LAYOUT
  2
AcDbLayout
  3
ObjectDBX Classes
 90
0
280
0
281
0
  0
CLASS
  1
MATERIAL
  2
AcDbMaterial
  3
ObjectDBX Classes
 90
1153
280
0
281
0
  0
CLASS
  1
MLEADERSTYLE
  2
AcDbMLeaderStyle
  3
ACDB_MLEADERSTYLE_CLASS
 90
4095
280
0
281
0
  0
CLASS
  1
VISUALSTYLE
  2
AcDbVisualStyle
  3
ObjectDBX Classes
 90
4095
280
0
281
0
  0
CLASS
  1
SUN
  2
AcDbSun
  3
SCENEOE
 90
1153
280
0
281
0
  0
CLASS
  1
SCALE
  2
AcDbScale
  3
ObjectDBX Classes
 90
1153
280
0
281
0
  0
CLASS
  1
TABLESTYLE
  2
AcDbTableStyle
  3
ObjectDBX Classes
 90
4095
280
0
281
0
  0
CLASS
  1
CELLSTYLEMAP
  2
AcDbCellStyleMap
  3
ObjectDBX Classes
 90
1152
280
0
281
0
  0
CLASS
  1
MENTALRAYRENDERSETTINGS
  2
AcDbMentalRayRenderSettings
  3
SCENEOE
 90
1024
280
0
281
0
  0
CLASS
  1
ACDBDETAILVIEWSTYLE
  2
AcDbDetailViewStyle
  3
ObjectDBX Classes
 90
1025
280
0
281
0
  0
CLASS
  1
ACDBSECTIONVIEWSTYLE
  2
AcDbSectionViewStyle
  3
ObjectDBX Classes
 90
1025
280
0
281
0
  0
CLASS
  1
RASTERVARIABLES
  2
AcDbRasterVariables
  3
ISM
 90
0
280
0
281
0
  0
ENDSEC
  0
SECTION
  2
TABLES
  0
TABLE
  2
VPORT
  5
8
330
0
100
AcDbSymbolTable
 70
1
  0
VPORT
  5
23
330
8
100
AcDbSymbolTableRecord
100
AcDbViewportTableRecord
  2
*Active
 70
0
 10
0.0
 20
0.0
 11
1.0
 21
1.0
 12
0.0
 22
0.0
 13
0.0
 23
0.0
 14
0.5
 24
0.5
 15
0.5
 25
0.5
 16
0.0
 26
0.0
 36
1.0
 17
0.0
 27
0.0
 37
0.0
 40
1000.0
 41
1.34
 42
50.0
 43
0.0
 44
0.0
 50
0.0
 51
0.0
 71
0
 72
1000
 73
1
 74
3
 75
0
 76
0
 77
0
 78
0
281
0
 65
0
146
0.0
  0
ENDTAB
  0
TABLE
  2
LTYPE
  5
2
330
0
100
AcDbSymbolTable
 70
21
  0
LTYPE
  5
24
330
2
100
AcDbSymbolTableRecord
100
AcDbLinetypeTableRecord
  2
ByBlock
 70
0
  3

 72
65
 73
0
 40
0.0
  0
LTYPE
  5
25
330
2
100
AcDbSymbolTableRecord
100
AcDbLinetypeTableRecord
  2
ByLayer
 70
0
  3

 72
65
 73
0
 40
0.0
  0
LTYPE
  5
26
330
2
100
AcDbSymbolTableRecord
100
AcDbLinetypeTableRecord
  2
Continuous
 70
0
  3

 72
65
 73
0
 40
0.0
  0
LTYPE
  5
2F
330
2
100
AcDbSymbolTableRecord
100
AcDbLinetypeTableRecord
  2
CENTER
 70
0
  3
Center ____ _ ____ _ ____ _ ____ _ ____ _ ____
 72
65
 73
4
 40
5.08
 49
3.175
 74
0
 49
-0.635
 74
0
 49
0.635
 74
0
 49
-0.635
 74
0
  0
LTYPE
  5
30
330
2
100
AcDbSymbolTableRecord
100
AcDbLinetypeTableRecord
  2
CENTERX2
 70
0
  3
Center (2x) ________  __  ________  __  ________
 72
65
 73
4
 40
8.89
 49
6.35
 74
0
 49
-0.635
 74
0
 49
1.27
 74
0
 49
-0.635
 74
0
  0
LTYPE
  5
31
330
2
100
AcDbSymbolTableRecord
100
AcDbLinetypeTableRecord
  2
CENTER2
 70
0
  3
Center (.5x) ____ _ ____ _ ____ _ ____ _ ____
 72
65
 73
4
 40
2.54
 49
1.587
 74
0
 49
-0.318
 74
0
 49
0.318
 74
0
 49
-0.318
 74
0
  0
LTYPE
  5
32
330
2
100
AcDbSymbolTableRecord
100
AcDbLinetypeTableRecord
  2
DASHED
 70
0
  3
Dashed __ __ __ __ __ __ __ __ __ __ __ __ __ _
 72
65
 73
2
 40
1.524
 49
1.27
 74
0
 49
-0.254
 74
0
  0
LTYPE
  5
33
330
2
100
AcDbSymbolTableRecord
100
AcDbLinetypeTableRecord
  2
DASHEDX2
 70
0
  3
Dashed (2x) ____  ____  ____  ____  ____  ____
 72
65
 73
2
 40
3.048
 49
2.54
 74
0
 49
-0.508
 74
0
  0
LTYPE
  5
34
330
2
100
AcDbSymbolTableRecord
100
AcDbLinetypeTableRecord
  2
DASHED2
 70
0
  3
Dashed (.5x) _ _ _ _ _ _ _ _ _ _ _ _ _ _
 72
65
 73
2
 40
0.762
 49
0.635
 74
0
 49
-0.127
 74
0
  0
LTYPE
  5
35
330
2
100
AcDbSymbolTableRecord
100
AcDbLinetypeTableRecord
  2
PHANTOM
 70
0
  3
Phantom ______  __  __  ______  __  __  ______
 72
65
 73
6
 40
6.35
 49
3.175
 74
0
 49
-0.635
 74
0
 49
0.635
 74
0
 49
-0.635
 74
0
 49
0.635
 74
0
 49
-0.635
 74
0
  0
LTYPE
  5
36
330
2
100
AcDbSymbolTableRecord
100
AcDbLinetypeTableRecord
  2
PHANTOMX2
 70
0
  3
Phantom (2x)____________    ____    ____    ____________
 72
65
 73
6
 40
10.795
 49
6.35
 74
0
 49
-0.635
 74
0
 49
1.27
 74
0
 49
-0.635
 74
0
 49
1.27
 74
0
 49
-0.635
 74
0
  0
LTYPE
  5
37
330
2
100
AcDbSymbolTableRecord
100
AcDbLinetypeTableRecord
  2
PHANTOM2
 70
0
  3
Phantom (.5x) ___ _ _ ___ _ _ ___ _ _ ___ _ _ ___
 72
65
 73
6
 40
3.175
 49
1.587
 74
0
 49
-0.318
 74
0
 49
0.318
 74
0
 49
-0.318
 74
0
 49
0.318
 74
0
 49
-0.318
 74
0
  0
LTYPE
  5
38
330
2
100
AcDbSymbolTableRecord
100
AcDbLinetypeTableRecord
  2
DASHDOT
 70
0
  3
Dash dot __ . __ . __ . __ . __ . __ . __ . __
 72
65
 73
4
 40
3.556
 49
2.54
 74
0
 49
-0.508
 74
0
 49
0.0
 74
0
 49
-0.508
 74
0
  0
LTYPE
  5
39
330
2
100
AcDbSymbolTableRecord
100
AcDbLinetypeTableRecord
  2
DASHDOTX2
 70
0
  3
Dash dot (2x) ____  .  ____  .  ____  .  ____
 72
65
 73
4
 40
6.096
 49
5.08
 74
0
 49
-0.508
 74
0
 49
0.0
 74
0
 49
-0.508
 74
0
  0
LTYPE
  5
3A
330
2
100
AcDbSymbolTableRecord
100
AcDbLinetypeTableRecord
  2
DASHDOT2
 70
0
  3
Dash dot (.5x) _ . _ . _ . _ . _ . _ . _ . _
 72
65
 73
4
 40
1.778
 49
1.27
 74
0
 49
-0.254
 74
0
 49
0.0
 74
0
 49
-0.254
 74
0
  0
LTYPE
  5
3B
330
2
100
AcDbSymbolTableRecord
100
AcDbLinetypeTableRecord
  2
DOT
 70
0
  3
Dot .  .  .  .  .  .  .  .  .  .  .  .  .  .  .  .
 72
65
 73
2
 40
0.508
 49
0.0
 74
0
 49
-0.508
 74
0
  0
LTYPE
  5
3C
330
2
100
AcDbSymbolTableRecord
100
AcDbLinetypeTableRecord
  2
DOTX2
 70
0
  3
Dot (2x) .    .    .    .    .    .    .    . 
 72
65
 73
2
 40
1.016
 49
0.0
 74
0
 49
-1.016
 74
0
  0
LTYPE
  5
3D
330
2
100
AcDbSymbolTableRecord
100
AcDbLinetypeTableRecord
  2
DOT2
 70
0
  3
Dot (.5) . . . . . . . . . . . . . . . . . . . 
 72
65
 73
2
 40
0.254
 49
0.0
 74
0
 49
-0.254
 74
0
  0
LTYPE
  5
3E
330
2
100
AcDbSymbolTableRecord
100
AcDbLinetypeTableRecord
  2
DIVIDE
 70
0
  3
Divide __ . . __ . . __ . . __ . . __ . . __
 72
65
 73
6
 40
4.064
 49
2.54
 74
0
 49
-0.508
 74
0
 49
0.0
 74
0
 49
-0.508
 74
0
 49
0.0
 74
0
 49
-0.508
 74
0
  0
LTYPE
  5
3F
330
2
100
AcDbSymbolTableRecord
100
AcDbLinetypeTableRecord
  2
DIVIDEX2
 70
0
  3
Divide (2x) ____  . .  ____  . .  ____  . .  ____
 72
65
 73
6
 40
6.604
 49
5.08
 74
0
 49
-0.508
 74
0
 49
0.0
 74
0
 49
-0.508
 74
0
 49
0.0
 74
0
 49
-0.508
 74
0
  0
LTYPE
  5
40
330
2
100
AcDbSymbolTableRecord
100
AcDbLinetypeTableRecord
  2
DIVIDE2
 70
0
  3
Divide(.5x) _ . _ . _ . _ . _ . _ . _ . _
 72
65
 73
6
 40
2.032
 49
1.27
 74
0
 49
-0.254
 74
0
 49
0.0
 74
0
 49
-0.254
 74
0
 49
0.0
 74
0
 49
-0.254
 74
0
  0
ENDTAB
  0
TABLE
  2
LAYER
  5
1
330
0
100
AcDbSymbolTable
 70
27
  0
LAYER
  5
27
330
1
100
AcDbSymbolTableRecord
100
AcDbLayerTableRecord
  2
0
 70
0
 62
7
  6
Continuous
370
-3
390
13
  0
LAYER
  5
28
330
1
100
AcDbSymbolTableRecord
100
AcDbLayerTableRecord
  2
Defpoints
 70
0
 62
7
  6
Continuous
290
0
370
-3
390
13
  0
LAYER
  5
8A
330
1
100
AcDbSymbolTableRecord
100
AcDbLayerTableRecord
  2
AR_w_sld
 70
0
 62
7
  6
Continuous
370
-3
390
13
  0
LAYER
  5
8B
330
1
100
AcDbSymbolTableRecord
100
AcDbLayerTableRecord
  2
S-BETON
 70
0
 62
5
  6
Continuous
370
-3
390
13
  0
LAYER
  5
8C
330
1
100
AcDbSymbolTableRecord
100
AcDbLayerTableRecord
  2
A_Kapi
 70
0
 62
2
  6
Continuous
370
-3
390
13
  0
LAYER
  5
8D
330
1
100
AcDbSymbolTableRecord
100
AcDbLayerTableRecord
  2
A_Pencere
 70
0
 62
4
  6
Continuous
370
-3
390
13
  0
LAYER
  5
8E
330
1
100
AcDbSymbolTableRecord
100
AcDbLayerTableRecord
  2
A_Mobilya
 70
0
 62
8
  6
Continuous
370
-3
390
13
  0
LAYER
  5
8F
330
1
100
AcDbSymbolTableRecord
100
AcDbLayerTableRecord
  2
A_Yazi
 70
0
 62
7
  6
Continuous
370
-3
390
13
  0
LAYER
  5
90
330
1
100
AcDbSymbolTableRecord
100
AcDbLayerTableRecord
  2
A_Cati
 70
0
 62
3
  6
Continuous
370
-3
390
13
  0
LAYER
  5
91
330
1
100
AcDbSymbolTableRecord
100
AcDbLayerTableRecord
  2
A_Kesit_Cizgisi
 70
0
 62
1
  6
Continuous
370
-3
390
13
  0
LAYER
  5
92
330
1
100
AcDbSymbolTableRecord
100
AcDbLayerTableRecord
  2
K_Kesit
 70
0
 62
7
  6
Continuous
370
-3
390
13
  0
LAYER
  5
93
330
1
100
AcDbSymbolTableRecord
100
AcDbLayerTableRecord
  2
K_Kot
 70
0
 62
1
  6
Continuous
370
-3
390
13
  0
LAYER
  5
94
330
1
100
AcDbSymbolTableRecord
100
AcDbLayerTableRecord
  2
K_Zemin
 70
0
 62
7
  6
Continuous
370
-3
390
13
  0
LAYER
  5
95
330
1
100
AcDbSymbolTableRecord
100
AcDbLayerTableRecord
  2
K_Cati
 70
0
 62
6
  6
Continuous
370
-3
390
13
  0
LAYER
  5
96
330
1
100
AcDbSymbolTableRecord
100
AcDbLayerTableRecord
  2
G_Cephe
 70
0
 62
7
  6
Continuous
370
-3
390
13
  0
LAYER
  5
97
330
1
100
AcDbSymbolTableRecord
100
AcDbLayerTableRecord
  2
G_Pencere
 70
0
 62
4
  6
Continuous
370
-3
390
13
  0
LAYER
  5
98
330
1
100
AcDbSymbolTableRecord
100
AcDbLayerTableRecord
  2
G_Kapi
 70
0
 62
2
  6
Continuous
370
-3
390
13
  0
LAYER
  5
99
330
1
100
AcDbSymbolTableRecord
100
AcDbLayerTableRecord
  2
G_Tarama
 70
0
 62
8
  6
Continuous
370
-3
390
13
  0
LAYER
  5
9A
330
1
100
AcDbSymbolTableRecord
100
AcDbLayerTableRecord
  2
V_Parsel
 70
0
 62
1
  6
Continuous
370
-3
390
13
  0
LAYER
  5
9B
330
1
100
AcDbSymbolTableRecord
100
AcDbLayerTableRecord
  2
V_Sinir_Duv
 70
0
 62
7
  6
Continuous
370
-3
390
13
  0
LAYER
  5
9C
330
1
100
AcDbSymbolTableRecord
100
AcDbLayerTableRecord
  2
V_Bina
 70
0
 62
7
  6
Continuous
370
-3
390
13
  0
LAYER
  5
9D
330
1
100
AcDbSymbolTableRecord
100
AcDbLayerTableRecord
  2
V_Agac
 70
0
 62
3
  6
Continuous
370
-3
390
13
  0
LAYER
  5
9E
330
1
100
AcDbSymbolTableRecord
100
AcDbLayerTableRecord
  2
V_Yol
 70
0
 62
8
  6
Continuous
370
-3
390
13
  0
LAYER
  5
9F
330
1
100
AcDbSymbolTableRecord
100
AcDbLayerTableRecord
  2
V_Kuzey
 70
0
 62
7
  6
Continuous
370
-3
390
13
  0
LAYER
  5
A0
330
1
100
AcDbSymbolTableRecord
100
AcDbLayerTableRecord
  2
A_Cerceve
 70
0
 62
7
  6
Continuous
370
-3
390
13
  0
LAYER
  5
A1
330
1
100
AcDbSymbolTableRecord
100
AcDbLayerTableRecord
  2
A_Antet
 70
0
 62
7
  6
Continuous
370
-3
390
13
  0
LAYER
  5
A2
330
1
100
AcDbSymbolTableRecord
100
AcDbLayerTableRecord
  2
A_Lejant
 70
0
 62
7
  6
Continuous
370
-3
390
13
  0
ENDTAB
  0
TABLE
  2
STYLE
  5
5
330
0
100
AcDbSymbolTable
 70
26
  0
STYLE
  5
29
330
5
100
AcDbSymbolTableRecord
100
AcDbTextStyleTableRecord
  2
Standard
 70
0
 40
0.0
 41
1.0
 50
0.0
 71
0
 42
2.5
  3
txt
  4

  0
STYLE
  5
41
330
5
100
AcDbSymbolTableRecord
100
AcDbTextStyleTableRecord
  2
OpenSans-Light
 70
0
 40
0.0
 41
1.0
 50
0.0
 71
0
 42
2.5
  3
OpenSans-Light.ttf
  4

  0
STYLE
  5
42
330
5
100
AcDbSymbolTableRecord
100
AcDbTextStyleTableRecord
  2
OpenSans-Light-Italic
 70
0
 40
0.0
 41
1.0
 50
0.0
 71
0
 42
2.5
  3
OpenSans-LightItalic.ttf
  4

  0
STYLE
  5
43
330
5
100
AcDbSymbolTableRecord
100
AcDbTextStyleTableRecord
  2
OpenSans
 70
0
 40
0.0
 41
1.0
 50
0.0
 71
0
 42
2.5
  3
OpenSans-Regular.ttf
  4

  0
STYLE
  5
44
330
5
100
AcDbSymbolTableRecord
100
AcDbTextStyleTableRecord
  2
OpenSans-Italic
 70
0
 40
0.0
 41
1.0
 50
0.0
 71
0
 42
2.5
  3
OpenSans-Italic.ttf
  4

  0
STYLE
  5
45
330
5
100
AcDbSymbolTableRecord
100
AcDbTextStyleTableRecord
  2
OpenSans-SemiBold
 70
0
 40
0.0
 41
1.0
 50
0.0
 71
0
 42
2.5
  3
OpenSans-SemiBold.ttf
  4

  0
STYLE
  5
46
330
5
100
AcDbSymbolTableRecord
100
AcDbTextStyleTableRecord
  2
OpenSans-SemiBoldItalic
 70
0
 40
0.0
 41
1.0
 50
0.0
 71
0
 42
2.5
  3
OpenSans-SemiBoldItalic.ttf
  4

  0
STYLE
  5
47
330
5
100
AcDbSymbolTableRecord
100
AcDbTextStyleTableRecord
  2
OpenSans-Bold
 70
0
 40
0.0
 41
1.0
 50
0.0
 71
0
 42
2.5
  3
OpenSans-Bold.ttf
  4

  0
STYLE
  5
48
330
5
100
AcDbSymbolTableRecord
100
AcDbTextStyleTableRecord
  2
OpenSans-BoldItalic
 70
0
 40
0.0
 41
1.0
 50
0.0
 71
0
 42
2.5
  3
OpenSans-BoldItalic.ttf
  4

  0
STYLE
  5
49
330
5
100
AcDbSymbolTableRecord
100
AcDbTextStyleTableRecord
  2
OpenSans-ExtraBold
 70
0
 40
0.0
 41
1.0
 50
0.0
 71
0
 42
2.5
  3
OpenSans-ExtraBold.ttf
  4

  0
STYLE
  5
4A
330
5
100
AcDbSymbolTableRecord
100
AcDbTextStyleTableRecord
  2
OpenSans-ExtraBoldItalic
 70
0
 40
0.0
 41
1.0
 50
0.0
 71
0
 42
2.5
  3
OpenSans-ExtraBoldItalic.ttf
  4

  0
STYLE
  5
4B
330
5
100
AcDbSymbolTableRecord
100
AcDbTextStyleTableRecord
  2
OpenSansCondensed-Bold
 70
0
 40
0.0
 41
1.0
 50
0.0
 71
0
 42
2.5
  3
OpenSansCondensed-Bold.ttf
  4

  0
STYLE
  5
4C
330
5
100
AcDbSymbolTableRecord
100
AcDbTextStyleTableRecord
  2
OpenSansCondensed-Light
 70
0
 40
0.0
 41
1.0
 50
0.0
 71
0
 42
2.5
  3
OpenSansCondensed-Light.ttf
  4

  0
STYLE
  5
4D
330
5
100
AcDbSymbolTableRecord
100
AcDbTextStyleTableRecord
  2
OpenSansCondensed-Italic
 70
0
 40
0.0
 41
1.0
 50
0.0
 71
0
 42
2.5
  3
OpenSansCondensed-LightItalic.ttf
  4

  0
STYLE
  5
4E
330
5
100
AcDbSymbolTableRecord
100
AcDbTextStyleTableRecord
  2
LiberationSans
 70
0
 40
0.0
 41
1.0
 50
0.0
 71
0
 42
2.5
  3
LiberationSans-Regular.ttf
  4

  0
STYLE
  5
4F
330
5
100
AcDbSymbolTableRecord
100
AcDbTextStyleTableRecord
  2
LiberationSans-Bold
 70
0
 40
0.0
 41
1.0
 50
0.0
 71
0
 42
2.5
  3
LiberationSans-Bold.ttf
  4

  0
STYLE
  5
50
330
5
100
AcDbSymbolTableRecord
100
AcDbTextStyleTableRecord
  2
LiberationSans-BoldItalic
 70
0
 40
0.0
 41
1.0
 50
0.0
 71
0
 42
2.5
  3
LiberationSans-BoldItalic.ttf
  4

  0
STYLE
  5
51
330
5
100
AcDbSymbolTableRecord
100
AcDbTextStyleTableRecord
  2
LiberationSans-Italic
 70
0
 40
0.0
 41
1.0
 50
0.0
 71
0
 42
2.5
  3
LiberationSans-Italic.ttf
  4

  0
STYLE
  5
52
330
5
100
AcDbSymbolTableRecord
100
AcDbTextStyleTableRecord
  2
LiberationSerif
 70
0
 40
0.0
 41
1.0
 50
0.0
 71
0
 42
2.5
  3
LiberationSerif-Regular.ttf
  4

  0
STYLE
  5
53
330
5
100
AcDbSymbolTableRecord
100
AcDbTextStyleTableRecord
  2
LiberationSerif-Bold
 70
0
 40
0.0
 41
1.0
 50
0.0
 71
0
 42
2.5
  3
LiberationSerif-Bold.ttf
  4

  0
STYLE
  5
54
330
5
100
AcDbSymbolTableRecord
100
AcDbTextStyleTableRecord
  2
LiberationSerif-BoldItalic
 70
0
 40
0.0
 41
1.0
 50
0.0
 71
0
 42
2.5
  3
LiberationSerif-BoldItalic.ttf
  4

  0
STYLE
  5
55
330
5
100
AcDbSymbolTableRecord
100
AcDbTextStyleTableRecord
  2
LiberationSerif-Italic
 70
0
 40
0.0
 41
1.0
 50
0.0
 71
0
 42
2.5
  3
LiberationSerif-Italic.ttf
  4

  0
STYLE
  5
56
330
5
100
AcDbSymbolTableRecord
100
AcDbTextStyleTableRecord
  2
LiberationMono
 70
0
 40
0.0
 41
1.0
 50
0.0
 71
0
 42
2.5
  3
LiberationMono-Regular.ttf
  4

  0
STYLE
  5
57
330
5
100
AcDbSymbolTableRecord
100
AcDbTextStyleTableRecord
  2
LiberationMono-Bold
 70
0
 40
0.0
 41
1.0
 50
0.0
 71
0
 42
2.5
  3
LiberationMono-Bold.ttf
  4

  0
STYLE
  5
58
330
5
100
AcDbSymbolTableRecord
100
AcDbTextStyleTableRecord
  2
LiberationMono-BoldItalic
 70
0
 40
0.0
 41
1.0
 50
0.0
 71
0
 42
2.5
  3
LiberationMono-BoldItalic.ttf
  4

  0
STYLE
  5
59
330
5
100
AcDbSymbolTableRecord
100
AcDbTextStyleTableRecord
  2
LiberationMono-Italic
 70
0
 40
0.0
 41
1.0
 50
0.0
 71
0
 42
2.5
  3
LiberationMono-Italic.ttf
  4

  0
ENDTAB
  0
TABLE
  2
VIEW
  5
7
330
0
100
AcDbSymbolTable
 70
0
  0
ENDTAB
  0
TABLE
  2
UCS
  5
6
330
0
100
AcDbSymbolTable
 70
0
  0
ENDTAB
  0
TABLE
  2
APPID
  5
3
330
0
100
AcDbSymbolTable
 70
3
  0
APPID
  5
2A
330
3
100
AcDbSymbolTableRecord
100
AcDbRegAppTableRecord
  2
ACAD
 70
0
  0
APPID
  5
298
330
3
100
AcDbSymbolTableRecord
100
AcDbRegAppTableRecord
  2
HATCHBACKGROUNDCOLOR
 70
0
  0
APPID
  5
299
330
3
100
AcDbSymbolTableRecord
100
AcDbRegAppTableRecord
  2
EZDXF
 70
0
  0
ENDTAB
  0
TABLE
  2
DIMSTYLE
  5
4
330
0
100
AcDbSymbolTable
 70
12
100
AcDbDimStyleTable
  0
DIMSTYLE
105
2B
330
4
100
AcDbSymbolTableRecord
100
AcDbDimStyleTableRecord
  2
Standard
 70
0
  3

  4

 40
1.0
 41
2.5
 42
0.625
 43
3.75
 44
1.25
 45
0.0
 46
0.0
 47
0.0
 48
0.0
140
2.5
141
2.5
142
0.0
143
0.03937007874
144
1.0
145
0.0
146
1.0
147
0.625
148
0.0
 71
0
 72
0
 73
0
 74
0
 75
0
 76
0
 77
1
 78
8
 79
3
170
0
171
3
172
1
173
0
174
0
175
0
176
0
177
0
178
0
179
2
271
2
272
2
273
2
274
3
275
0
276
0
277
2
278
44
279
0
280
0
281
0
282
0
283
0
284
8
285
0
286
0
288
0
289
3
371
-2
372
-2
  0
DIMSTYLE
105
73
330
4
100
AcDbSymbolTableRecord
100
AcDbDimStyleTableRecord
  2
EZDXF
 70
0
  3

  4

 40
1.0
 41
0.175
 42
0.125
 43
3.75
 44
0.375
 45
0.0
 46
0.0
 47
0.0
 48
0.0
140
0.25
141
2.5
142
0.0
143
0.03937007874
144
100.0
145
0.0
146
0.5
147
0.1
148
0.0
 71
0
 72
0
 73
0
 74
0
 75
0
 76
0
 77
1
 78
12
 79
3
170
0
171
3
172
1
173
0
174
0
175
0
176
0
177
0
178
0
179
2
271
2
272
2
273
2
274
3
275
0
276
0
277
2
278
46
279
2
280
0
281
0
282
0
283
0
284
8
285
0
286
0
288
1
289
3
340
4C
342
74
371
-2
372
-2
  0
DIMSTYLE
105
7C
330
4
100
AcDbSymbolTableRecord
100
AcDbDimStyleTableRecord
  2
EZ_M_100_H25_CM
 70
0
  3

  4

 40
1.0
 41
0.25
 42
0.125
 43
3.75
 44
0.375
 45
0.0
 46
0.0
 47
0.0
 48
0.0
140
0.25
141
2.5
142
0.125
143
0.03937007874
144
100.0
145
0.0
146
0.5
147
0.1
148
0.0
 71
0
 72
0
 73
0
 74
0
 75
0
 76
0
 77
1
 78
12
 79
3
170
0
171
3
172
1
173
0
174
0
175
0
176
0
177
0
178
0
179
2
271
2
272
2
273
2
274
3
275
0
276
0
277
2
278
46
279
2
280
0
281
0
282
0
283
0
284
8
285
0
286
0
288
1
289
3
340
4C
371
-2
372
-2
  0
DIMSTYLE
105
7D
330
4
100
AcDbSymbolTableRecord
100
AcDbDimStyleTableRecord
  2
EZ_M_50_H25_CM
 70
0
  3

  4

 40
1.0
 41
0.125
 42
0.0625
 43
3.75
 44
0.1875
 45
0.0
 46
0.0
 47
0.0
 48
0.0
140
0.125
141
2.5
142
0.0625
143
0.03937007874
144
100.0
145
0.0
146
0.5
147
0.05
148
0.0
 71
0
 72
0
 73
0
 74
0
 75
0
 76
0
 77
1
 78
12
 79
3
170
0
171
3
172
1
173
0
174
0
175
0
176
0
177
0
178
0
179
2
271
2
272
2
273
2
274
3
275
0
276
0
277
2
278
46
279
2
280
0
281
0
282
0
283
0
284
8
285
0
286
0
288
1
289
3
340
4C
371
-2
372
-2
  0
DIMSTYLE
105
7E
330
4
100
AcDbSymbolTableRecord
100
AcDbDimStyleTableRecord
  2
EZ_M_25_H25_CM
 70
0
  3

  4

 40
1.0
 41
0.0625
 42
0.03125
 43
3.75
 44
0.09375
 45
0.0
 46
0.0
 47
0.0
 48
0.0
140
0.0625
141
2.5
142
0.03125
143
0.03937007874
144
100.0
145
0.0
146
0.5
147
0.025
148
0.0
 71
0
 72
0
 73
0
 74
0
 75
0
 76
0
 77
1
 78
12
 79
3
170
0
171
3
172
1
173
0
174
0
175
0
176
0
177
0
178
0
179
2
271
2
272
2
273
2
274
3
275
0
276
0
277
2
278
46
279
2
280
0
281
0
282
0
283
0
284
8
285
0
286
0
288
1
289
3
340
4C
371
-2
372
-2
  0
DIMSTYLE
105
7F
330
4
100
AcDbSymbolTableRecord
100
AcDbDimStyleTableRecord
  2
EZ_M_20_H25_CM
 70
0
  3

  4

 40
1.0
 41
0.05
 42
0.025
 43
3.75
 44
0.07500000000000001
 45
0.0
 46
0.0
 47
0.0
 48
0.0
140
0.05
141
2.5
142
0.025
143
0.03937007874
144
100.0
145
0.0
146
0.5
147
0.020000000000000004
148
0.0
 71
0
 72
0
 73
0
 74
0
 75
0
 76
0
 77
1
 78
12
 79
3
170
0
171
3
172
1
173
0
174
0
175
0
176
0
177
0
178
0
179
2
271
2
272
2
273
2
274
3
275
0
276
0
277
2
278
46
279
2
280
0
281
0
282
0
283
0
284
8
285
0
286
0
288
1
289
3
340
4C
371
-2
372
-2
  0
DIMSTYLE
105
80
330
4
100
AcDbSymbolTableRecord
100
AcDbDimStyleTableRecord
  2
EZ_M_10_H25_CM
 70
0
  3

  4

 40
1.0
 41
0.025
 42
0.0125
 43
3.75
 44
0.037500000000000006
 45
0.0
 46
0.0
 47
0.0
 48
0.0
140
0.025
141
2.5
142
0.0125
143
0.03937007874
144
100.0
145
0.0
146
0.5
147
0.010000000000000002
148
0.0
 71
0
 72
0
 73
0
 74
0
 75
0
 76
0
 77
1
 78
12
 79
3
170
0
171
3
172
1
173
0
174
0
175
0
176
0
177
0
178
0
179
2
271
2
272
2
273
2
274
3
275
0
276
0
277
2
278
46
279
2
280
0
281
0
282
0
283
0
284
8
285
0
286
0
288
1
289
3
340
4C
371
-2
372
-2
  0
DIMSTYLE
105
81
330
4
100
AcDbSymbolTableRecord
100
AcDbDimStyleTableRecord
  2
EZ_M_5_H25_CM
 70
0
  3

  4

 40
1.0
 41
0.0125
 42
0.00625
 43
3.75
 44
0.018750000000000003
 45
0.0
 46
0.0
 47
0.0
 48
0.0
140
0.0125
141
2.5
142
0.00625
143
0.03937007874
144
100.0
145
0.0
146
0.5
147
0.005000000000000001
148
0.0
 71
0
 72
0
 73
0
 74
0
 75
0
 76
0
 77
1
 78
12
 79
3
170
0
171
3
172
1
173
0
174
0
175
0
176
0
177
0
178
0
179
2
271
2
272
2
273
2
274
3
275
0
276
0
277
2
278
46
279
2
280
0
281
0
282
0
283
0
284
8
285
0
286
0
288
1
289
3
340
4C
371
-2
372
-2
  0
DIMSTYLE
105
82
330
4
100
AcDbSymbolTableRecord
100
AcDbDimStyleTableRecord
  2
EZ_M_1_H25_CM
 70
0
  3

  4

 40
1.0
 41
0.0025
 42
0.00125
 43
3.75
 44
0.00375
 45
0.0
 46
0.0
 47
0.0
 48
0.0
140
0.0025
141
2.5
142
0.00125
143
0.03937007874
144
100.0
145
0.0
146
0.5
147
0.001
148
0.0
 71
0
 72
0
 73
0
 74
0
 75
0
 76
0
 77
1
 78
12
 79
3
170
0
171
3
172
1
173
0
174
0
175
0
176
0
177
0
178
0
179
2
271
2
272
2
273
2
274
3
275
0
276
0
277
2
278
46
279
2
280
0
281
0
282
0
283
0
284
8
285
0
286
0
288
1
289
3
340
4C
371
-2
372
-2
  0
DIMSTYLE
105
83
330
4
100
AcDbSymbolTableRecord
100
AcDbDimStyleTableRecord
  2
EZ_RADIUS
 70
0
  3

  4

 40
1.0
 41
0.25
 42
0.125
 43
3.75
 44
0.375
 45
0.0
 46
0.0
 47
0.0
 48
0.0
140
0.25
141
0.0
142
0.0
143
0.03937007874
144
100.0
145
0.0
146
0.5
147
0.1
148
0.0
 71
0
 72
0
 73
0
 74
0
 75
0
 76
0
 77
1
 78
12
 79
3
170
0
171
3
172
0
173
0
174
0
175
0
176
0
177
0
178
0
179
2
271
2
272
2
273
2
274
3
275
0
276
0
277
2
278
46
279
1
280
0
281
0
282
0
283
0
284
8
285
0
286
0
288
1
289
3
340
4C
342
84
371
-2
372
-2
  0
DIMSTYLE
105
88
330
4
100
AcDbSymbolTableRecord
100
AcDbDimStyleTableRecord
  2
EZ_RADIUS_INSIDE
 70
0
  3

  4

 40
1.0
 41
0.25
 42
0.125
 43
3.75
 44
0.375
 45
0.0
 46
0.0
 47
0.0
 48
0.0
140
0.25
141
0.0
142
0.0
143
0.03937007874
144
100.0
145
0.0
146
0.5
147
0.1
148
0.0
 71
0
 72
0
 73
0
 74
0
 75
0
 76
0
 77
0
 78
12
 79
3
170
0
171
3
172
0
173
0
174
1
175
0
176
0
177
0
178
0
179
2
271
2
272
2
273
2
274
3
275
0
276
0
277
2
278
46
279
0
280
0
281
0
282
0
283
0
284
8
285
0
286
0
288
1
289
0
340
4C
342
84
371
-2
372
-2
  0
DIMSTYLE
105
89
330
4
100
AcDbSymbolTableRecord
100
AcDbDimStyleTableRecord
  2
EZ_CURVED
 70
0
  3

  4

 40
1.0
 41
0.25
 42
0.125
 43
3.75
 44
0.375
 45
0.0
 46
0.0
 47
0.0
 48
0.0
140
0.25
141
2.5
142
0.0
143
0.03937007874
144
100.0
145
0.0
146
0.5
147
0.1
148
0.0
 71
0
 72
0
 73
0
 74
0
 75
0
 76
0
 77
1
 78
12
 79
2
 90
2
170
0
171
3
172
1
173
0
174
0
175
0
176
0
177
0
178
0
179
2
271
2
272
2
273
2
274
3
275
0
276
0
277
2
278
46
279
2
280
0
281
0
282
0
283
0
284
8
285
0
286
0
288
1
289
3
340
4C
371
-2
372
-2
  0
ENDTAB
  0
TABLE
  2
BLOCK_RECORD
  5
9
330
0
100
AcDbSymbolTable
 70
23
  0
BLOCK_RECORD
  5
17
330
9
100
AcDbSymbolTableRecord
100
AcDbBlockTableRecord
  2
*Model_Space
340
1A
  0
BLOCK_RECORD
  5
1B
330
9
100
AcDbSymbolTableRecord
100
AcDbBlockTableRecord
  2
*Paper_Space
340
1E
  0
BLOCK_RECORD
  5
74
330
9
100
AcDbSymbolTableRecord
100
AcDbBlockTableRecord
  2
_ARCHTICK
340
0
  0
BLOCK_RECORD
  5
78
330
9
100
AcDbSymbolTableRecord
100
AcDbBlockTableRecord
  2
_CLOSEDFILLED
340
0
  0
BLOCK_RECORD
  5
84
330
9
100
AcDbSymbolTableRecord
100
AcDbBlockTableRecord
  2
_CLOSEDBLANK
340
0
  0
BLOCK_RECORD
  5
A3
330
9
100
AcDbSymbolTableRecord
100
AcDbBlockTableRecord
  2
AGAC
340
0
  0
BLOCK_RECORD
  5
AA
330
9
100
AcDbSymbolTableRecord
100
AcDbBlockTableRecord
  2
BUZDOLABI
340
0
  0
BLOCK_RECORD
  5
AF
330
9
100
AcDbSymbolTableRecord
100
AcDbBlockTableRecord
  2
DUS
340
0
  0
BLOCK_RECORD
  5
B4
330
9
100
AcDbSymbolTableRecord
100
AcDbBlockTableRecord
  2
EVIYE
340
0
  0
BLOCK_RECORD
  5
B9
330
9
100
AcDbSymbolTableRecord
100
AcDbBlockTableRecord
  2
KANEPE_3LU
340
0
  0
BLOCK_RECORD
  5
BE
330
9
100
AcDbSymbolTableRecord
100
AcDbBlockTableRecord
  2
KAPI_80
340
0
  0
BLOCK_RECORD
  5
C3
330
9
100
AcDbSymbolTableRecord
100
AcDbBlockTableRecord
  2
KAPI_90
340
0
  0
BLOCK_RECORD
  5
C8
330
9
100
AcDbSymbolTableRecord
100
AcDbBlockTableRecord
  2
KAPI_CIFT_140
340
0
  0
BLOCK_RECORD
  5
CF
330
9
100
AcDbSymbolTableRecord
100
AcDbBlockTableRecord
  2
KAPI_SURME_90
340
0
  0
BLOCK_RECORD
  5
D6
330
9
100
AcDbSymbolTableRecord
100
AcDbBlockTableRecord
  2
KLOZET
340
0
  0
BLOCK_RECORD
  5
DB
330
9
100
AcDbSymbolTableRecord
100
AcDbBlockTableRecord
  2
KUZEY
340
0
  0
BLOCK_RECORD
  5
E0
330
9
100
AcDbSymbolTableRecord
100
AcDbBlockTableRecord
  2
LAVABO
340
0
  0
BLOCK_RECORD
  5
E5
330
9
100
AcDbSymbolTableRecord
100
AcDbBlockTableRecord
  2
MERDIVEN
340
0
  0
BLOCK_RECORD
  5
F7
330
9
100
AcDbSymbolTableRecord
100
AcDbBlockTableRecord
  2
OCAK
340
0
  0
BLOCK_RECORD
  5
FC
330
9
100
AcDbSymbolTableRecord
100
AcDbBlockTableRecord
  2
PENCERE_120
340
0
  0
BLOCK_RECORD
  5
104
330
9
100
AcDbSymbolTableRecord
100
AcDbBlockTableRecord
  2
PENCERE_60
340
0
  0
BLOCK_RECORD
  5
10C
330
9
100
AcDbSymbolTableRecord
100
AcDbBlockTableRecord
  2
TEZGAH
340
0
  0
BLOCK_RECORD
  5
111
330
9
100
AcDbSymbolTableRecord
100
AcDbBlockTableRecord
  2
YATAK_CIFT
340
0
  0
ENDTAB
  0
ENDSEC
  0
SECTION
  2
BLOCKS
  0
BLOCK
  5
18
330
17
100
AcDbEntity
  8
0
100
AcDbBlockBegin
  2
*Model_Space
 70
0
 10
0.0
 20
0.0
 30
0.0
  3
*Model_Space
  1

  0
ENDBLK
  5
19
330
17
100
AcDbEntity
  8
0
100
AcDbBlockEnd
  0
BLOCK
  5
1C
330
1B
100
AcDbEntity
  8
0
100
AcDbBlockBegin
  2
*Paper_Space
 70
0
 10
0.0
 20
0.0
 30
0.0
  3
*Paper_Space
  1

  0
ENDBLK
  5
1D
330
1B
100
AcDbEntity
  8
0
100
AcDbBlockEnd
  0
BLOCK
  5
75
330
74
100
AcDbEntity
  8
0
100
AcDbBlockBegin
  2
_ARCHTICK
 70
0
 10
0.0
 20
0.0
 30
0.0
  3
_ARCHTICK
  1

  0
LWPOLYLINE
  5
77
330
74
100
AcDbEntity
  8
0
  6
BYBLOCK
 62
0
100
AcDbPolyline
 90
2
 70
0
 43
0.15
 10
-0.5
 20
-0.5
 10
0.5
 20
0.5
  0
ENDBLK
  5
76
330
74
100
AcDbEntity
  8
0
100
AcDbBlockEnd
  0
BLOCK
  5
79
330
78
100
AcDbEntity
  8
0
100
AcDbBlockBegin
  2
_CLOSEDFILLED
 70
0
 10
0.0
 20
0.0
 30
0.0
  3
_CLOSEDFILLED
  1

  0
SOLID
  5
7B
330
78
100
AcDbEntity
  8
0
  6
BYBLOCK
 62
0
100
AcDbTrace
 10
-1.0
 20
0.16439898372402537
 30
0.0
 11
0.0
 21
0.0
 31
0.0
 12
-1.0
 22
-0.16439898372402537
 32
0.0
 13
-1.0
 23
-0.16439898372402537
 33
0.0
  0
ENDBLK
  5
7A
330
78
100
AcDbEntity
  8
0
100
AcDbBlockEnd
  0
BLOCK
  5
85
330
84
100
AcDbEntity
  8
0
100
AcDbBlockBegin
  2
_CLOSEDBLANK
 70
0
 10
0.0
 20
0.0
 30
0.0
  3
_CLOSEDBLANK
  1

  0
LWPOLYLINE
  5
87
330
84
100
AcDbEntity
  8
0
  6
BYBLOCK
 62
0
100
AcDbPolyline
 90
3
 70
1
 10
-1.0
 20
0.16439898372402537
 10
0.0
 20
0.0
 10
-1.0
 20
-0.16439898372402537
  0
ENDBLK
  5
86
330
84
100
AcDbEntity
  8
0
100
AcDbBlockEnd
  0
BLOCK
  5
A4
330
A3
100
AcDbEntity
  8
0
100
AcDbBlockBegin
  2
AGAC
 70
0
 10
0.0
 20
0.0
 30
0.0
  3
AGAC
  1

  0
CIRCLE
  5
A6
330
A3
100
AcDbEntity
  8
0
100
AcDbCircle
 10
0.0
 20
0.0
 30
0.0
 40
120.0
  0
CIRCLE
  5
A7
330
A3
100
AcDbEntity
  8
0
100
AcDbCircle
 10
0.0
 20
0.0
 30
0.0
 40
15.0
  0
LINE
  5
A8
330
A3
100
AcDbEntity
  8
0
100
AcDbLine
 10
-50.0
 20
0.0
 30
0.0
 11
50.0
 21
0.0
 31
0.0
  0
LINE
  5
A9
330
A3
100
AcDbEntity
  8
0
100
AcDbLine
 10
0.0
 20
-50.0
 30
0.0
 11
0.0
 21
50.0
 31
0.0
  0
ENDBLK
  5
A5
330
A3
100
AcDbEntity
  8
0
100
AcDbBlockEnd
  0
BLOCK
  5
AB
330
AA
100
AcDbEntity
  8
0
100
AcDbBlockBegin
  2
BUZDOLABI
 70
0
 10
0.0
 20
0.0
 30
0.0
  3
BUZDOLABI
  1

  0
LWPOLYLINE
  5
AD
330
AA
100
AcDbEntity
  8
0
100
AcDbPolyline
 90
4
 70
1
 10
-35.0
 20
-35.0
 10
35.0
 20
-35.0
 10
35.0
 20
35.0
 10
-35.0
 20
35.0
  0
LINE
  5
AE
330
AA
100
AcDbEntity
  8
0
100
AcDbLine
 10
-17.5
 20
-30.0
 30
0.0
 11
17.5
 21
-30.0
 31
0.0
  0
ENDBLK
  5
AC
330
AA
100
AcDbEntity
  8
0
100
AcDbBlockEnd
  0
BLOCK
  5
B0
330
AF
100
AcDbEntity
  8
0
100
AcDbBlockBegin
  2
DUS
 70
0
 10
0.0
 20
0.0
 30
0.0
  3
DUS
  1

  0
LWPOLYLINE
  5
B2
330
AF
100
AcDbEntity
  8
0
100
AcDbPolyline
 90
4
 70
1
 10
-45.0
 20
-45.0
 10
45.0
 20
-45.0
 10
45.0
 20
45.0
 10
-45.0
 20
45.0
  0
LINE
  5
B3
330
AF
100
AcDbEntity
  8
0
100
AcDbLine
 10
-22.5
 20
-40.0
 30
0.0
 11
22.5
 21
-40.0
 31
0.0
  0
ENDBLK
  5
B1
330
AF
100
AcDbEntity
  8
0
100
AcDbBlockEnd
  0
BLOCK
  5
B5
330
B4
100
AcDbEntity
  8
0
100
AcDbBlockBegin
  2
EVIYE
 70
0
 10
0.0
 20
0.0
 30
0.0
  3
EVIYE
  1

  0
LWPOLYLINE
  5
B7
330
B4
100
AcDbEntity
  8
0
100
AcDbPolyline
 90
4
 70
1
 10
-40.0
 20
-25.0
 10
40.0
 20
-25.0
 10
40.0
 20
25.0
 10
-40.0
 20
25.0
  0
LINE
  5
B8
330
B4
100
AcDbEntity
  8
0
100
AcDbLine
 10
-20.0
 20
-20.0
 30
0.0
 11
20.0
 21
-20.0
 31
0.0
  0
ENDBLK
  5
B6
330
B4
100
AcDbEntity
  8
0
100
AcDbBlockEnd
  0
BLOCK
  5
BA
330
B9
100
AcDbEntity
  8
0
100
AcDbBlockBegin
  2
KANEPE_3LU
 70
0
 10
0.0
 20
0.0
 30
0.0
  3
KANEPE_3LU
  1

  0
LWPOLYLINE
  5
BC
330
B9
100
AcDbEntity
  8
0
100
AcDbPolyline
 90
4
 70
1
 10
-110.0
 20
-45.0
 10
110.0
 20
-45.0
 10
110.0
 20
45.0
 10
-110.0
 20
45.0
  0
LINE
  5
BD
330
B9
100
AcDbEntity
  8
0
100
AcDbLine
 10
-55.0
 20
-40.0
 30
0.0
 11
55.0
 21
-40.0
 31
0.0
  0
ENDBLK
  5
BB
330
B9
100
AcDbEntity
  8
0
100
AcDbBlockEnd
  0
BLOCK
  5
BF
330
BE
100
AcDbEntity
  8
0
100
AcDbBlockBegin
  2
KAPI_80
 70
0
 10
0.0
 20
0.0
 30
0.0
  3
KAPI_80
  1

  0
LINE
  5
C1
330
BE
100
AcDbEntity
  8
0
100
AcDbLine
 10
-40.0
 20
0.0
 30
0.0
 11
-40.0
 21
80.0
 31
0.0
  0
ARC
  5
C2
330
BE
100
AcDbEntity
  8
0
100
AcDbCircle
 10
-40.0
 20
0.0
 30
0.0
 40
80.0
100
AcDbArc
 50
0.0
 51
90.0
  0
ENDBLK
  5
C0
330
BE
100
AcDbEntity
  8
0
100
AcDbBlockEnd
  0
BLOCK
  5
C4
330
C3
100
AcDbEntity
  8
0
100
AcDbBlockBegin
  2
KAPI_90
 70
0
 10
0.0
 20
0.0
 30
0.0
  3
KAPI_90
  1

  0
LINE
  5
C6
330
C3
100
AcDbEntity
  8
0
100
AcDbLine
 10
-45.0
 20
0.0
 30
0.0
 11
-45.0
 21
90.0
 31
0.0
  0
ARC
  5
C7
330
C3
100
AcDbEntity
  8
0
100
AcDbCircle
 10
-45.0
 20
0.0
 30
0.0
 40
90.0
100
AcDbArc
 50
0.0
 51
90.0
  0
ENDBLK
  5
C5
330
C3
100
AcDbEntity
  8
0
100
AcDbBlockEnd
  0
BLOCK
  5
C9
330
C8
100
AcDbEntity
  8
0
100
AcDbBlockBegin
  2
KAPI_CIFT_140
 70
0
 10
0.0
 20
0.0
 30
0.0
  3
KAPI_CIFT_140
  1

  0
LINE
  5
CB
330
C8
100
AcDbEntity
  8
0
100
AcDbLine
 10
-70.0
 20
0.0
 30
0.0
 11
-70.0
 21
70.0
 31
0.0
  0
ARC
  5
CC
330
C8
100
AcDbEntity
  8
0
100
AcDbCircle
 10
-70.0
 20
0.0
 30
0.0
 40
70.0
100
AcDbArc
 50
0.0
 51
90.0
  0
LINE
  5
CD
330
C8
100
AcDbEntity
  8
0
100
AcDbLine
 10
70.0
 20
0.0
 30
0.0
 11
70.0
 21
70.0
 31
0.0
  0
ARC
  5
CE
330
C8
100
AcDbEntity
  8
0
100
AcDbCircle
 10
70.0
 20
0.0
 30
0.0
 40
70.0
100
AcDbArc
 50
90.0
 51
180.0
  0
ENDBLK
  5
CA
330
C8
100
AcDbEntity
  8
0
100
AcDbBlockEnd
  0
BLOCK
  5
D0
330
CF
100
AcDbEntity
  8
0
100
AcDbBlockBegin
  2
KAPI_SURME_90
 70
0
 10
0.0
 20
0.0
 30
0.0
  3
KAPI_SURME_90
  1

  0
LWPOLYLINE
  5
D2
330
CF
100
AcDbEntity
  8
0
100
AcDbPolyline
 90
4
 70
1
 10
0.0
 20
5.0
 10
90.0
 20
5.0
 10
90.0
 20
9.0
 10
0.0
 20
9.0
  0
LINE
  5
D3
330
CF
100
AcDbEntity
  8
0
100
AcDbLine
 10
-35.0
 20
14.0
 30
0.0
 11
35.0
 21
14.0
 31
0.0
  0
LINE
  5
D4
330
CF
100
AcDbEntity
  8
0
100
AcDbLine
 10
35.0
 20
14.0
 30
0.0
 11
25.0
 21
19.0
 31
0.0
  0
LINE
  5
D5
330
CF
100
AcDbEntity
  8
0
100
AcDbLine
 10
35.0
 20
14.0
 30
0.0
 11
25.0
 21
9.0
 31
0.0
  0
ENDBLK
  5
D1
330
CF
100
AcDbEntity
  8
0
100
AcDbBlockEnd
  0
BLOCK
  5
D7
330
D6
100
AcDbEntity
  8
0
100
AcDbBlockBegin
  2
KLOZET
 70
0
 10
0.0
 20
0.0
 30
0.0
  3
KLOZET
  1

  0
LWPOLYLINE
  5
D9
330
D6
100
AcDbEntity
  8
0
100
AcDbPolyline
 90
4
 70
1
 10
-20.0
 20
-35.0
 10
20.0
 20
-35.0
 10
20.0
 20
35.0
 10
-20.0
 20
35.0
  0
LINE
  5
DA
330
D6
100
AcDbEntity
  8
0
100
AcDbLine
 10
-10.0
 20
-30.0
 30
0.0
 11
10.0
 21
-30.0
 31
0.0
  0
ENDBLK
  5
D8
330
D6
100
AcDbEntity
  8
0
100
AcDbBlockEnd
  0
BLOCK
  5
DC
330
DB
100
AcDbEntity
  8
0
100
AcDbBlockBegin
  2
KUZEY
 70
0
 10
0.0
 20
0.0
 30
0.0
  3
KUZEY
  1

  0
CIRCLE
  5
DE
330
DB
100
AcDbEntity
  8
0
100
AcDbCircle
 10
0.0
 20
0.0
 30
0.0
 40
70.0
  0
LWPOLYLINE
  5
DF
330
DB
100
AcDbEntity
  8
0
100
AcDbPolyline
 90
4
 70
1
 10
0.0
 20
70.0
 10
-25.0
 20
-35.0
 10
0.0
 20
-15.0
 10
25.0
 20
-35.0
  0
ENDBLK
  5
DD
330
DB
100
AcDbEntity
  8
0
100
AcDbBlockEnd
  0
BLOCK
  5
E1
330
E0
100
AcDbEntity
  8
0
100
AcDbBlockBegin
  2
LAVABO
 70
0
 10
0.0
 20
0.0
 30
0.0
  3
LAVABO
  1

  0
LWPOLYLINE
  5
E3
330
E0
100
AcDbEntity
  8
0
100
AcDbPolyline
 90
4
 70
1
 10
-30.0
 20
-22.5
 10
30.0
 20
-22.5
 10
30.0
 20
22.5
 10
-30.0
 20
22.5
  0
LINE
  5
E4
330
E0
100
AcDbEntity
  8
0
100
AcDbLine
 10
-15.0
 20
-17.5
 30
0.0
 11
15.0
 21
-17.5
 31
0.0
  0
ENDBLK
  5
E2
330
E0
100
AcDbEntity
  8
0
100
AcDbBlockEnd
  0
BLOCK
  5
E6
330
E5
100
AcDbEntity
  8
0
100
AcDbBlockBegin
  2
MERDIVEN
 70
0
 10
0.0
 20
0.0
 30
0.0
  3
MERDIVEN
  1

  0
LWPOLYLINE
  5
E8
330
E5
100
AcDbEntity
  8
0
100
AcDbPolyline
 90
4
 70
1
 10
-50.0
 20
-150.0
 10
50.0
 20
-150.0
 10
50.0
 20
150.0
 10
-50.0
 20
150.0
  0
LINE
  5
E9
330
E5
100
AcDbEntity
  8
0
100
AcDbLine
 10
-50.0
 20
-125.0
 30
0.0
 11
50.0
 21
-125.0
 31
0.0
  0
LINE
  5
EA
330
E5
100
AcDbEntity
  8
0
100
AcDbLine
 10
-50.0
 20
-100.0
 30
0.0
 11
50.0
 21
-100.0
 31
0.0
  0
LINE
  5
EB
330
E5
100
AcDbEntity
  8
0
100
AcDbLine
 10
-50.0
 20
-75.0
 30
0.0
 11
50.0
 21
-75.0
 31
0.0
  0
LINE
  5
EC
330
E5
100
AcDbEntity
  8
0
100
AcDbLine
 10
-50.0
 20
-50.0
 30
0.0
 11
50.0
 21
-50.0
 31
0.0
  0
LINE
  5
ED
330
E5
100
AcDbEntity
  8
0
100
AcDbLine
 10
-50.0
 20
-25.0
 30
0.0
 11
50.0
 21
-25.0
 31
0.0
  0
LINE
  5
EE
330
E5
100
AcDbEntity
  8
0
100
AcDbLine
 10
-50.0
 20
0.0
 30
0.0
 11
50.0
 21
0.0
 31
0.0
  0
LINE
  5
EF
330
E5
100
AcDbEntity
  8
0
100
AcDbLine
 10
-50.0
 20
25.0
 30
0.0
 11
50.0
 21
25.0
 31
0.0
  0
LINE
  5
F0
330
E5
100
AcDbEntity
  8
0
100
AcDbLine
 10
-50.0
 20
50.0
 30
0.0
 11
50.0
 21
50.0
 31
0.0
  0
LINE
  5
F1
330
E5
100
AcDbEntity
  8
0
100
AcDbLine
 10
-50.0
 20
75.0
 30
0.0
 11
50.0
 21
75.0
 31
0.0
  0
LINE
  5
F2
330
E5
100
AcDbEntity
  8
0
100
AcDbLine
 10
-50.0
 20
100.0
 30
0.0
 11
50.0
 21
100.0
 31
0.0
  0
LINE
  5
F3
330
E5
100
AcDbEntity
  8
0
100
AcDbLine
 10
-50.0
 20
125.0
 30
0.0
 11
50.0
 21
125.0
 31
0.0
  0
LINE
  5
F4
330
E5
100
AcDbEntity
  8
0
100
AcDbLine
 10
0.0
 20
-120.0
 30
0.0
 11
0.0
 21
120.0
 31
0.0
  0
LINE
  5
F5
330
E5
100
AcDbEntity
  8
0
100
AcDbLine
 10
0.0
 20
120.0
 30
0.0
 11
-12.0
 21
90.0
 31
0.0
  0
LINE
  5
F6
330
E5
100
AcDbEntity
  8
0
100
AcDbLine
 10
0.0
 20
120.0
 30
0.0
 11
12.0
 21
90.0
 31
0.0
  0
ENDBLK
  5
E7
330
E5
100
AcDbEntity
  8
0
100
AcDbBlockEnd
  0
BLOCK
  5
F8
330
F7
100
AcDbEntity
  8
0
100
AcDbBlockBegin
  2
OCAK
 70
0
 10
0.0
 20
0.0
 30
0.0
  3
OCAK
  1

  0
LWPOLYLINE
  5
FA
330
F7
100
AcDbEntity
  8
0
100
AcDbPolyline
 90
4
 70
1
 10
-30.0
 20
-30.0
 10
30.0
 20
-30.0
 10
30.0
 20
30.0
 10
-30.0
 20
30.0
  0
LINE
  5
FB
330
F7
100
AcDbEntity
  8
0
100
AcDbLine
 10
-15.0
 20
-25.0
 30
0.0
 11
15.0
 21
-25.0
 31
0.0
  0
ENDBLK
  5
F9
330
F7
100
AcDbEntity
  8
0
100
AcDbBlockEnd
  0
BLOCK
  5
FD
330
FC
100
AcDbEntity
  8
0
100
AcDbBlockBegin
  2
PENCERE_120
 70
0
 10
0.0
 20
0.0
 30
0.0
  3
PENCERE_120
  1

  0
LINE
  5
FF
330
FC
100
AcDbEntity
  8
0
100
AcDbLine
 10
-60.0
 20
12.5
 30
0.0
 11
60.0
 21
12.5
 31
0.0
  0
LINE
  5
100
330
FC
100
AcDbEntity
  8
0
100
AcDbLine
 10
-60.0
 20
0.0
 30
0.0
 11
60.0
 21
0.0
 31
0.0
  0
LINE
  5
101
330
FC
100
AcDbEntity
  8
0
100
AcDbLine
 10
-60.0
 20
-12.5
 30
0.0
 11
60.0
 21
-12.5
 31
0.0
  0
LINE
  5
102
330
FC
100
AcDbEntity
  8
0
100
AcDbLine
 10
-60.0
 20
-12.5
 30
0.0
 11
-60.0
 21
12.5
 31
0.0
  0
LINE
  5
103
330
FC
100
AcDbEntity
  8
0
100
AcDbLine
 10
60.0
 20
-12.5
 30
0.0
 11
60.0
 21
12.5
 31
0.0
  0
ENDBLK
  5
FE
330
FC
100
AcDbEntity
  8
0
100
AcDbBlockEnd
  0
BLOCK
  5
105
330
104
100
AcDbEntity
  8
0
100
AcDbBlockBegin
  2
PENCERE_60
 70
0
 10
0.0
 20
0.0
 30
0.0
  3
PENCERE_60
  1

  0
LINE
  5
107
330
104
100
AcDbEntity
  8
0
100
AcDbLine
 10
-30.0
 20
12.5
 30
0.0
 11
30.0
 21
12.5
 31
0.0
  0
LINE
  5
108
330
104
100
AcDbEntity
  8
0
100
AcDbLine
 10
-30.0
 20
0.0
 30
0.0
 11
30.0
 21
0.0
 31
0.0
  0
LINE
  5
109
330
104
100
AcDbEntity
  8
0
100
AcDbLine
 10
-30.0
 20
-12.5
 30
0.0
 11
30.0
 21
-12.5
 31
0.0
  0
LINE
  5
10A
330
104
100
AcDbEntity
  8
0
100
AcDbLine
 10
-30.0
 20
-12.5
 30
0.0
 11
-30.0
 21
12.5
 31
0.0
  0
LINE
  5
10B
330
104
100
AcDbEntity
  8
0
100
AcDbLine
 10
30.0
 20
-12.5
 30
0.0
 11
30.0
 21
12.5
 31
0.0
  0
ENDBLK
  5
106
330
104
100
AcDbEntity
  8
0
100
AcDbBlockEnd
  0
BLOCK
  5
10D
330
10C
100
AcDbEntity
  8
0
100
AcDbBlockBegin
  2
TEZGAH
 70
0
 10
0.0
 20
0.0
 30
0.0
  3
TEZGAH
  1

  0
LWPOLYLINE
  5
10F
330
10C
100
AcDbEntity
  8
0
100
AcDbPolyline
 90
4
 70
1
 10
-120.0
 20
-30.0
 10
120.0
 20
-30.0
 10
120.0
 20
30.0
 10
-120.0
 20
30.0
  0
LINE
  5
110
330
10C
100
AcDbEntity
  8
0
100
AcDbLine
 10
-60.0
 20
-25.0
 30
0.0
 11
60.0
 21
-25.0
 31
0.0
  0
ENDBLK
  5
10E
330
10C
100
AcDbEntity
  8
0
100
AcDbBlockEnd
  0
BLOCK
  5
112
330
111
100
AcDbEntity
  8
0
100
AcDbBlockBegin
  2
YATAK_CIFT
 70
0
 10
0.0
 20
0.0
 30
0.0
  3
YATAK_CIFT
  1

  0
LWPOLYLINE
  5
114
330
111
100
AcDbEntity
  8
0
100
AcDbPolyline
 90
4
 70
1
 10
-80.0
 20
-100.0
 10
80.0
 20
-100.0
 10
80.0
 20
100.0
 10
-80.0
 20
100.0
  0
LINE
  5
115
330
111
100
AcDbEntity
  8
0
100
AcDbLine
 10
-40.0
 20
-95.0
 30
0.0
 11
40.0
 21
-95.0
 31
0.0
  0
ENDBLK
  5
113
330
111
100
AcDbEntity
  8
0
100
AcDbBlockEnd
  0
ENDSEC
  0
SECTION
  2
ENTITIES
  0
LWPOLYLINE
  5
116
330
17
100
AcDbEntity
  8
A_Cerceve
100
AcDbPolyline
 90
4
 70
1
 10
0.0
 20
0.0
 10
11000.0
 20
0.0
 10
11000.0
 20
5600.0
 10
0.0
 20
5600.0
  0
LWPOLYLINE
  5
117
330
17
100
AcDbEntity
  8
AR_w_sld
100
AcDbPolyline
 90
2
 70
0
 10
600.0
 20
4200.0
 10
690.0
 20
4200.0
  0
LWPOLYLINE
  5
118
330
17
100
AcDbEntity
  8
AR_w_sld
100
AcDbPolyline
 90
2
 70
0
 10
810.0
 20
4200.0
 10
990.0
 20
4200.0
  0
LWPOLYLINE
  5
119
330
17
100
AcDbEntity
  8
AR_w_sld
100
AcDbPolyline
 90
2
 70
0
 10
1110.0
 20
4200.0
 10
1340.0
 20
4200.0
  0
LWPOLYLINE
  5
11A
330
17
100
AcDbEntity
  8
AR_w_sld
100
AcDbPolyline
 90
2
 70
0
 10
1460.0
 20
4200.0
 10
1600.0
 20
4200.0
  0
LWPOLYLINE
  5
11B
330
17
100
AcDbEntity
  8
AR_w_sld
100
AcDbPolyline
 90
2
 70
0
 10
1600.0
 20
4200.0
 10
1600.0
 20
4770.0
  0
LWPOLYLINE
  5
11C
330
17
100
AcDbEntity
  8
AR_w_sld
100
AcDbPolyline
 90
2
 70
0
 10
1600.0
 20
4830.0
 10
1600.0
 20
5000.0
  0
LWPOLYLINE
  5
11D
330
17
100
AcDbEntity
  8
AR_w_sld
100
AcDbPolyline
 90
2
 70
0
 10
1600.0
 20
5000.0
 10
1445.0
 20
5000.0
  0
LWPOLYLINE
  5
11E
330
17
100
AcDbEntity
  8
AR_w_sld
100
AcDbPolyline
 90
2
 70
0
 10
1355.0
 20
5000.0
 10
1110.0
 20
5000.0
  0
LWPOLYLINE
  5
11F
330
17
100
AcDbEntity
  8
AR_w_sld
100
AcDbPolyline
 90
2
 70
0
 10
990.0
 20
5000.0
 10
810.0
 20
5000.0
  0
LWPOLYLINE
  5
120
330
17
100
AcDbEntity
  8
AR_w_sld
100
AcDbPolyline
 90
2
 70
0
 10
690.0
 20
5000.0
 10
600.0
 20
5000.0
  0
LWPOLYLINE
  5
121
330
17
100
AcDbEntity
  8
AR_w_sld
100
AcDbPolyline
 90
2
 70
0
 10
600.0
 20
5000.0
 10
600.0
 20
4660.0
  0
LWPOLYLINE
  5
122
330
17
100
AcDbEntity
  8
AR_w_sld
100
AcDbPolyline
 90
2
 70
0
 10
600.0
 20
4540.0
 10
600.0
 20
4200.0
  0
LWPOLYLINE
  5
123
330
17
100
AcDbEntity
  8
AR_w_sld
100
AcDbPolyline
 90
2
 70
0
 10
625.0
 20
4225.0
 10
690.0
 20
4225.0
  0
LWPOLYLINE
  5
124
330
17
100
AcDbEntity
  8
AR_w_sld
100
AcDbPolyline
 90
2
 70
0
 10
810.0
 20
4225.0
 10
990.0
 20
4225.0
  0
LWPOLYLINE
  5
125
330
17
100
AcDbEntity
  8
AR_w_sld
100
AcDbPolyline
 90
2
 70
0
 10
1110.0
 20
4225.0
 10
1205.0
 20
4225.0
  0
LWPOLYLINE
  5
126
330
17
100
AcDbEntity
  8
AR_w_sld
100
AcDbPolyline
 90
2
 70
0
 10
1205.0
 20
4225.0
 10
1205.0
 20
4755.0
  0
LWPOLYLINE
  5
127
330
17
100
AcDbEntity
  8
AR_w_sld
100
AcDbPolyline
 90
2
 70
0
 10
1205.0
 20
4845.0
 10
1205.0
 20
4975.0
  0
LWPOLYLINE
  5
128
330
17
100
AcDbEntity
  8
AR_w_sld
100
AcDbPolyline
 90
2
 70
0
 10
1205.0
 20
4975.0
 10
1110.0
 20
4975.0
  0
LWPOLYLINE
  5
129
330
17
100
AcDbEntity
  8
AR_w_sld
100
AcDbPolyline
 90
2
 70
0
 10
990.0
 20
4975.0
 10
810.0
 20
4975.0
  0
LWPOLYLINE
  5
12A
330
17
100
AcDbEntity
  8
AR_w_sld
100
AcDbPolyline
 90
2
 70
0
 10
690.0
 20
4975.0
 10
625.0
 20
4975.0
  0
LWPOLYLINE
  5
12B
330
17
100
AcDbEntity
  8
AR_w_sld
100
AcDbPolyline
 90
2
 70
0
 10
625.0
 20
4975.0
 10
625.0
 20
4660.0
  0
LWPOLYLINE
  5
12C
330
17
100
AcDbEntity
  8
AR_w_sld
100
AcDbPolyline
 90
2
 70
0
 10
625.0
 20
4540.0
 10
625.0
 20
4225.0
  0
LWPOLYLINE
  5
12D
330
17
100
AcDbEntity
  8
AR_w_sld
100
AcDbPolyline
 90
2
 70
0
 10
1215.0
 20
4225.0
 10
1340.0
 20
4225.0
  0
LWPOLYLINE
  5
12E
330
17
100
AcDbEntity
  8
AR_w_sld
100
AcDbPolyline
 90
2
 70
0
 10
1460.0
 20
4225.0
 10
1575.0
 20
4225.0
  0
LWPOLYLINE
  5
12F
330
17
100
AcDbEntity
  8
AR_w_sld
100
AcDbPolyline
 90
2
 70
0
 10
1575.0
 20
4225.0
 10
1575.0
 20
4595.0
  0
LWPOLYLINE
  5
130
330
17
100
AcDbEntity
  8
AR_w_sld
100
AcDbPolyline
 90
2
 70
0
 10
1575.0
 20
4595.0
 10
1400.0
 20
4595.0
  0
LWPOLYLINE
  5
131
330
17
100
AcDbEntity
  8
AR_w_sld
100
AcDbPolyline
 90
2
 70
0
 10
1320.0
 20
4595.0
 10
1215.0
 20
4595.0
  0
LWPOLYLINE
  5
132
330
17
100
AcDbEntity
  8
AR_w_sld
100
AcDbPolyline
 90
2
 70
0
 10
1215.0
 20
4595.0
 10
1215.0
 20
4225.0
  0
LWPOLYLINE
  5
133
330
17
100
AcDbEntity
  8
AR_w_sld
100
AcDbPolyline
 90
2
 70
0
 10
1215.0
 20
4605.0
 10
1320.0
 20
4605.0
  0
LWPOLYLINE
  5
134
330
17
100
AcDbEntity
  8
AR_w_sld
100
AcDbPolyline
 90
2
 70
0
 10
1400.0
 20
4605.0
 10
1575.0
 20
4605.0
  0
LWPOLYLINE
  5
135
330
17
100
AcDbEntity
  8
AR_w_sld
100
AcDbPolyline
 90
2
 70
0
 10
1575.0
 20
4605.0
 10
1575.0
 20
4770.0
  0
LWPOLYLINE
  5
136
330
17
100
AcDbEntity
  8
AR_w_sld
100
AcDbPolyline
 90
2
 70
0
 10
1575.0
 20
4830.0
 10
1575.0
 20
4975.0
  0
LWPOLYLINE
  5
137
330
17
100
AcDbEntity
  8
AR_w_sld
100
AcDbPolyline
 90
2
 70
0
 10
1575.0
 20
4975.0
 10
1445.0
 20
4975.0
  0
LWPOLYLINE
  5
138
330
17
100
AcDbEntity
  8
AR_w_sld
100
AcDbPolyline
 90
2
 70
0
 10
1355.0
 20
4975.0
 10
1215.0
 20
4975.0
  0
LWPOLYLINE
  5
139
330
17
100
AcDbEntity
  8
AR_w_sld
100
AcDbPolyline
 90
2
 70
0
 10
1215.0
 20
4975.0
 10
1215.0
 20
4845.0
  0
LWPOLYLINE
  5
13A
330
17
100
AcDbEntity
  8
AR_w_sld
100
AcDbPolyline
 90
2
 70
0
 10
1215.0
 20
4755.0
 10
1215.0
 20
4605.0
  0
LWPOLYLINE
  5
13B
330
17
100
AcDbEntity
  8
S-BETON
100
AcDbPolyline
 90
4
 70
1
 10
600.0
 20
4200.0
 10
625.0
 20
4200.0
 10
625.0
 20
4225.0
 10
600.0
 20
4225.0
  0
LWPOLYLINE
  5
13C
330
17
100
AcDbEntity
  8
S-BETON
100
AcDbPolyline
 90
4
 70
1
 10
1575.0
 20
4200.0
 10
1600.0
 20
4200.0
 10
1600.0
 20
4225.0
 10
1575.0
 20
4225.0
  0
LWPOLYLINE
  5
13D
330
17
100
AcDbEntity
  8
S-BETON
100
AcDbPolyline
 90
4
 70
1
 10
1575.0
 20
4975.0
 10
1600.0
 20
4975.0
 10
1600.0
 20
5000.0
 10
1575.0
 20
5000.0
  0
LWPOLYLINE
  5
13E
330
17
100
AcDbEntity
  8
S-BETON
100
AcDbPolyline
 90
4
 70
1
 10
600.0
 20
4975.0
 10
625.0
 20
4975.0
 10
625.0
 20
5000.0
 10
600.0
 20
5000.0
  0
LWPOLYLINE
  5
13F
330
17
100
AcDbEntity
  8
S-BETON
100
AcDbPolyline
 90
4
 70
1
 10
1197.5
 20
4200.0
 10
1222.5
 20
4200.0
 10
1222.5
 20
4225.0
 10
1197.5
 20
4225.0
  0
LWPOLYLINE
  5
140
330
17
100
AcDbEntity
  8
S-BETON
100
AcDbPolyline
 90
4
 70
1
 10
1197.5
 20
4975.0
 10
1222.5
 20
4975.0
 10
1222.5
 20
5000.0
 10
1197.5
 20
5000.0
  0
INSERT
  5
141
330
17
100
AcDbEntity
  8
A_Kapi
100
AcDbBlockReference
  2
KAPI_SURME_90
 10
1210.0
 20
4800.0
 30
0.0
 50
90.0
  0
INSERT
  5
143
330
17
100
AcDbEntity
  8
A_Kapi
100
AcDbBlockReference
  2
KAPI_80
 10
1360.0
 20
4600.0
 30
0.0
 50
180.0
  0
INSERT
  5
145
330
17
100
AcDbEntity
  8
A_Kapi
100
AcDbBlockReference
  2
KAPI_90
 10
1400.0
 20
4987.5
 30
0.0
 50
180.0
  0
INSERT
  5
147
330
17
100
AcDbEntity
  8
A_Pencere
100
AcDbBlockReference
  2
PENCERE_120
 10
750.0
 20
4212.5
 30
0.0
  0
INSERT
  5
149
330
17
100
AcDbEntity
  8
A_Pencere
100
AcDbBlockReference
  2
PENCERE_120
 10
1050.0
 20
4212.5
 30
0.0
  0
INSERT
  5
14B
330
17
100
AcDbEntity
  8
A_Pencere
100
AcDbBlockReference
  2
PENCERE_120
 10
1400.0
 20
4212.5
 30
0.0
  0
INSERT
  5
14D
330
17
100
AcDbEntity
  8
A_Pencere
100
AcDbBlockReference
  2
PENCERE_120
 10
612.5
 20
4600.0
 30
0.0
 50
90.0
  0
INSERT
  5
14F
330
17
100
AcDbEntity
  8
A_Pencere
100
AcDbBlockReference
  2
PENCERE_120
 10
750.0
 20
4987.5
 30
0.0
  0
INSERT
  5
151
330
17
100
AcDbEntity
  8
A_Pencere
100
AcDbBlockReference
  2
PENCERE_120
 10
1050.0
 20
4987.5
 30
0.0
  0
INSERT
  5
153
330
17
100
AcDbEntity
  8
A_Pencere
100
AcDbBlockReference
  2
PENCERE_60
 10
1587.5
 20
4800.0
 30
0.0
 50
90.0
  0
INSERT
  5
155
330
17
100
AcDbEntity
  8
A_Mobilya
100
AcDbBlockReference
  2
KANEPE_3LU
 10
920.0
 20
4920.0
 30
0.0
  0
INSERT
  5
157
330
17
100
AcDbEntity
  8
A_Mobilya
100
AcDbBlockReference
  2
BUZDOLABI
 10
1540.0
 20
4265.0
 30
0.0
 50
270.0
  0
INSERT
  5
159
330
17
100
AcDbEntity
  8
A_Mobilya
100
AcDbBlockReference
  2
TEZGAH
 10
1545.0
 20
4420.0
 30
0.0
 50
270.0
  0
INSERT
  5
15B
330
17
100
AcDbEntity
  8
A_Mobilya
100
AcDbBlockReference
  2
EVIYE
 10
1550.0
 20
4370.0
 30
0.0
 50
270.0
  0
INSERT
  5
15D
330
17
100
AcDbEntity
  8
A_Mobilya
100
AcDbBlockReference
  2
OCAK
 10
1545.0
 20
4485.0
 30
0.0
 50
270.0
  0
INSERT
  5
15F
330
17
100
AcDbEntity
  8
A_Mobilya
100
AcDbBlockReference
  2
MERDIVEN
 10
1525.0
 20
4800.0
 30
0.0
  0
MTEXT
  5
161
330
17
100
AcDbEntity
  8
A_Yazi
100
AcDbMText
 10
700.0
 20
4660.0
 30
0.0
 40
20.0
 71
1
  1
\H20;SALON\P43.5M2
  0
MTEXT
  5
162
330
17
100
AcDbEntity
  8
A_Yazi
100
AcDbMText
 10
1235.0
 20
4480.0
 30
0.0
 40
20.0
 71
1
  1
\H20;MUTFAK\P13.3M2
  0
MTEXT
  5
163
330
17
100
AcDbEntity
  8
A_Yazi
100
AcDbMText
 10
1235.0
 20
4860.0
 30
0.0
 40
20.0
 71
1
  1
\H20;HOL\P13.3M2
  0
MTEXT
  5
164
330
17
100
AcDbEntity
  8
A_Yazi
100
AcDbMText
 10
600.0
 20
4130.0
 30
0.0
 40
30.0
 71
1
  1
\H30;BODRUM KAT PLANI
  0
LWPOLYLINE
  5
165
330
17
100
AcDbEntity
  8
AR_w_sld
100
AcDbPolyline
 90
2
 70
0
 10
2300.0
 20
4175.0
 10
2390.0
 20
4175.0
  0
LWPOLYLINE
  5
166
330
17
100
AcDbEntity
  8
AR_w_sld
100
AcDbPolyline
 90
2
 70
0
 10
2510.0
 20
4175.0
 10
2690.0
 20
4175.0
  0
LWPOLYLINE
  5
167
330
17
100
AcDbEntity
  8
AR_w_sld
100
AcDbPolyline
 90
2
 70
0
 10
2810.0
 20
4175.0
 10
3040.0
 20
4175.0
  0
LWPOLYLINE
  5
168
330
17
100
AcDbEntity
  8
AR_w_sld
100
AcDbPolyline
 90
2
 70
0
 10
3160.0
 20
4175.0
 10
3300.0
 20
4175.0
  0
LWPOLYLINE
  5
169
330
17
100
AcDbEntity
  8
AR_w_sld
100
AcDbPolyline
 90
2
 70
0
 10
3300.0
 20
4175.0
 10
3300.0
 20
4745.0
  0
LWPOLYLINE
  5
16A
330
17
100
AcDbEntity
  8
AR_w_sld
100
AcDbPolyline
 90
2
 70
0
 10
3300.0
 20
4805.0
 10
3300.0
 20
4975.0
  0
LWPOLYLINE
  5
16B
330
17
100
AcDbEntity
  8
AR_w_sld
100
AcDbPolyline
 90
2
 70
0
 10
3300.0
 20
4975.0
 10
3145.0
 20
4975.0
  0
LWPOLYLINE
  5
16C
330
17
100
AcDbEntity
  8
AR_w_sld
100
AcDbPolyline
 90
2
 70
0
 10
3055.0
 20
4975.0
 10
2810.0
 20
4975.0
  0
LWPOLYLINE
  5
16D
330
17
100
AcDbEntity
  8
AR_w_sld
100
AcDbPolyline
 90
2
 70
0
 10
2690.0
 20
4975.0
 10
2510.0
 20
4975.0
  0
LWPOLYLINE
  5
16E
330
17
100
AcDbEntity
  8
AR_w_sld
100
AcDbPolyline
 90
2
 70
0
 10
2390.0
 20
4975.0
 10
2300.0
 20
4975.0
  0
LWPOLYLINE
  5
16F
330
17
100
AcDbEntity
  8
AR_w_sld
100
AcDbPolyline
 90
2
 70
0
 10
2300.0
 20
4975.0
 10
2300.0
 20
4635.0
  0
LWPOLYLINE
  5
170
330
17
100
AcDbEntity
  8
AR_w_sld
100
AcDbPolyline
 90
2
 70
0
 10
2300.0
 20
4515.0
 10
2300.0
 20
4175.0
  0
LWPOLYLINE
  5
171
330
17
100
AcDbEntity
  8
AR_w_sld
100
AcDbPolyline
 90
2
 70
0
 10
2325.0
 20
4200.0
 10
2390.0
 20
4200.0
  0
LWPOLYLINE
  5
172
330
17
100
AcDbEntity
  8
AR_w_sld
100
AcDbPolyline
 90
2
 70
0
 10
2510.0
 20
4200.0
 10
2690.0
 20
4200.0
  0
LWPOLYLINE
  5
173
330
17
100
AcDbEntity
  8
AR_w_sld
100
AcDbPolyline
 90
2
 70
0
 10
2810.0
 20
4200.0
 10
3040.0
 20
4200.0
  0
LWPOLYLINE
  5
174
330
17
100
AcDbEntity
  8
AR_w_sld
100
AcDbPolyline
 90
2
 70
0
 10
3160.0
 20
4200.0
 10
3275.0
 20
4200.0
  0
LWPOLYLINE
  5
175
330
17
100
AcDbEntity
  8
AR_w_sld
100
AcDbPolyline
 90
2
 70
0
 10
3275.0
 20
4200.0
 10
3275.0
 20
4570.0
  0
LWPOLYLINE
  5
176
330
17
100
AcDbEntity
  8
AR_w_sld
100
AcDbPolyline
 90
2
 70
0
 10
3275.0
 20
4570.0
 10
3100.0
 20
4570.0
  0
LWPOLYLINE
  5
177
330
17
100
AcDbEntity
  8
AR_w_sld
100
AcDbPolyline
 90
2
 70
0
 10
3020.0
 20
4570.0
 10
2905.0
 20
4570.0
  0
LWPOLYLINE
  5
178
330
17
100
AcDbEntity
  8
AR_w_sld
100
AcDbPolyline
 90
2
 70
0
 10
2905.0
 20
4570.0
 10
2905.0
 20
4730.0
  0
LWPOLYLINE
  5
179
330
17
100
AcDbEntity
  8
AR_w_sld
100
AcDbPolyline
 90
2
 70
0
 10
2905.0
 20
4820.0
 10
2905.0
 20
4950.0
  0
LWPOLYLINE
  5
17A
330
17
100
AcDbEntity
  8
AR_w_sld
100
AcDbPolyline
 90
2
 70
0
 10
2905.0
 20
4950.0
 10
2810.0
 20
4950.0
  0
LWPOLYLINE
  5
17B
330
17
100
AcDbEntity
  8
AR_w_sld
100
AcDbPolyline
 90
2
 70
0
 10
2690.0
 20
4950.0
 10
2510.0
 20
4950.0
  0
LWPOLYLINE
  5
17C
330
17
100
AcDbEntity
  8
AR_w_sld
100
AcDbPolyline
 90
2
 70
0
 10
2390.0
 20
4950.0
 10
2325.0
 20
4950.0
  0
LWPOLYLINE
  5
17D
330
17
100
AcDbEntity
  8
AR_w_sld
100
AcDbPolyline
 90
2
 70
0
 10
2325.0
 20
4950.0
 10
2325.0
 20
4635.0
  0
LWPOLYLINE
  5
17E
330
17
100
AcDbEntity
  8
AR_w_sld
100
AcDbPolyline
 90
2
 70
0
 10
2325.0
 20
4515.0
 10
2325.0
 20
4200.0
  0
LWPOLYLINE
  5
17F
330
17
100
AcDbEntity
  8
AR_w_sld
100
AcDbPolyline
 90
2
 70
0
 10
2915.0
 20
4580.0
 10
3020.0
 20
4580.0
  0
LWPOLYLINE
  5
180
330
17
100
AcDbEntity
  8
AR_w_sld
100
AcDbPolyline
 90
2
 70
0
 10
3100.0
 20
4580.0
 10
3275.0
 20
4580.0
  0
LWPOLYLINE
  5
181
330
17
100
AcDbEntity
  8
AR_w_sld
100
AcDbPolyline
 90
2
 70
0
 10
3275.0
 20
4580.0
 10
3275.0
 20
4745.0
  0
LWPOLYLINE
  5
182
330
17
100
AcDbEntity
  8
AR_w_sld
100
AcDbPolyline
 90
2
 70
0
 10
3275.0
 20
4805.0
 10
3275.0
 20
4950.0
  0
LWPOLYLINE
  5
183
330
17
100
AcDbEntity
  8
AR_w_sld
100
AcDbPolyline
 90
2
 70
0
 10
3275.0
 20
4950.0
 10
3145.0
 20
4950.0
  0
LWPOLYLINE
  5
184
330
17
100
AcDbEntity
  8
AR_w_sld
100
AcDbPolyline
 90
2
 70
0
 10
3055.0
 20
4950.0
 10
2915.0
 20
4950.0
  0
LWPOLYLINE
  5
185
330
17
100
AcDbEntity
  8
AR_w_sld
100
AcDbPolyline
 90
2
 70
0
 10
2915.0
 20
4950.0
 10
2915.0
 20
4820.0
  0
LWPOLYLINE
  5
186
330
17
100
AcDbEntity
  8
AR_w_sld
100
AcDbPolyline
 90
2
 70
0
 10
2915.0
 20
4730.0
 10
2915.0
 20
4580.0
  0
LWPOLYLINE
  5
187
330
17
100
AcDbEntity
  8
S-BETON
100
AcDbPolyline
 90
4
 70
1
 10
2300.0
 20
4175.0
 10
2325.0
 20
4175.0
 10
2325.0
 20
4200.0
 10
2300.0
 20
4200.0
  0
LWPOLYLINE
  5
188
330
17
100
AcDbEntity
  8
S-BETON
100
AcDbPolyline
 90
4
 70
1
 10
3275.0
 20
4175.0
 10
3300.0
 20
4175.0
 10
3300.0
 20
4200.0
 10
3275.0
 20
4200.0
  0
LWPOLYLINE
  5
189
330
17
100
AcDbEntity
  8
S-BETON
100
AcDbPolyline
 90
4
 70
1
 10
3275.0
 20
4950.0
 10
3300.0
 20
4950.0
 10
3300.0
 20
4975.0
 10
3275.0
 20
4975.0
  0
LWPOLYLINE
  5
18A
330
17
100
AcDbEntity
  8
S-BETON
100
AcDbPolyline
 90
4
 70
1
 10
2300.0
 20
4950.0
 10
2325.0
 20
4950.0
 10
2325.0
 20
4975.0
 10
2300.0
 20
4975.0
  0
LWPOLYLINE
  5
18B
330
17
100
AcDbEntity
  8
S-BETON
100
AcDbPolyline
 90
4
 70
1
 10
2897.5
 20
4175.0
 10
2922.5
 20
4175.0
 10
2922.5
 20
4200.0
 10
2897.5
 20
4200.0
  0
LWPOLYLINE
  5
18C
330
17
100
AcDbEntity
  8
S-BETON
100
AcDbPolyline
 90
4
 70
1
 10
2897.5
 20
4950.0
 10
2922.5
 20
4950.0
 10
2922.5
 20
4975.0
 10
2897.5
 20
4975.0
  0
INSERT
  5
18D
330
17
100
AcDbEntity
  8
A_Kapi
100
AcDbBlockReference
  2
KAPI_SURME_90
 10
2910.0
 20
4775.0
 30
0.0
 50
90.0
  0
INSERT
  5
18F
330
17
100
AcDbEntity
  8
A_Kapi
100
AcDbBlockReference
  2
KAPI_80
 10
3060.0
 20
4575.0
 30
0.0
 50
180.0
  0
INSERT
  5
191
330
17
100
AcDbEntity
  8
A_Kapi
100
AcDbBlockReference
  2
KAPI_90
 10
3100.0
 20
4962.5
 30
0.0
 50
180.0
  0
INSERT
  5
193
330
17
100
AcDbEntity
  8
A_Pencere
100
AcDbBlockReference
  2
PENCERE_120
 10
2450.0
 20
4187.5
 30
0.0
  0
INSERT
  5
195
330
17
100
AcDbEntity
  8
A_Pencere
100
AcDbBlockReference
  2
PENCERE_120
 10
2750.0
 20
4187.5
 30
0.0
  0
INSERT
  5
197
330
17
100
AcDbEntity
  8
A_Pencere
100
AcDbBlockReference
  2
PENCERE_120
 10
3100.0
 20
4187.5
 30
0.0
  0
INSERT
  5
199
330
17
100
AcDbEntity
  8
A_Pencere
100
AcDbBlockReference
  2
PENCERE_120
 10
2312.5
 20
4575.0
 30
0.0
 50
90.0
  0
INSERT
  5
19B
330
17
100
AcDbEntity
  8
A_Pencere
100
AcDbBlockReference
  2
PENCERE_120
 10
2450.0
 20
4962.5
 30
0.0
  0
INSERT
  5
19D
330
17
100
AcDbEntity
  8
A_Pencere
100
AcDbBlockReference
  2
PENCERE_120
 10
2750.0
 20
4962.5
 30
0.0
  0
INSERT
  5
19F
330
17
100
AcDbEntity
  8
A_Pencere
100
AcDbBlockReference
  2
PENCERE_60
 10
3287.5
 20
4775.0
 30
0.0
 50
90.0
  0
INSERT
  5
1A1
330
17
100
AcDbEntity
  8
A_Mobilya
100
AcDbBlockReference
  2
KANEPE_3LU
 10
2620.0
 20
4895.0
 30
0.0
  0
INSERT
  5
1A3
330
17
100
AcDbEntity
  8
A_Mobilya
100
AcDbBlockReference
  2
BUZDOLABI
 10
3240.0
 20
4240.0
 30
0.0
 50
270.0
  0
INSERT
  5
1A5
330
17
100
AcDbEntity
  8
A_Mobilya
100
AcDbBlockReference
  2
TEZGAH
 10
3245.0
 20
4395.0
 30
0.0
 50
270.0
  0
INSERT
  5
1A7
330
17
100
AcDbEntity
  8
A_Mobilya
100
AcDbBlockReference
  2
EVIYE
 10
3250.0
 20
4345.0
 30
0.0
 50
270.0
  0
INSERT
  5
1A9
330
17
100
AcDbEntity
  8
A_Mobilya
100
AcDbBlockReference
  2
OCAK
 10
3245.0
 20
4460.0
 30
0.0
 50
270.0
  0
INSERT
  5
1AB
330
17
100
AcDbEntity
  8
A_Mobilya
100
AcDbBlockReference
  2
MERDIVEN
 10
3225.0
 20
4775.0
 30
0.0
  0
MTEXT
  5
1AD
330
17
100
AcDbEntity
  8
A_Yazi
100
AcDbMText
 10
2400.0
 20
4635.0
 30
0.0
 40
20.0
 71
1
  1
\H20;SALON + A«IK MUTFAK\P57.2M2
  0
MTEXT
  5
1AE
330
17
100
AcDbEntity
  8
A_Yazi
100
AcDbMText
 10
2935.0
 20
4835.0
 30
0.0
 40
20.0
 71
1
  1
\H20;HOL\P13.3M2
  0
MTEXT
  5
1AF
330
17
100
AcDbEntity
  8
A_Yazi
100
AcDbMText
 10
2300.0
 20
4105.0
 30
0.0
 40
30.0
 71
1
  1
\H30;BODRUM KAT PLANI (A«IK MUTFAK)
  0
LWPOLYLINE
  5
1B0
330
17
100
AcDbEntity
  8
AR_w_sld
100
AcDbPolyline
 90
2
 70
0
 10
4000.0
 20
4040.0
 10
4090.0
 20
4040.0
  0
LWPOLYLINE
  5
1B1
330
17
100
AcDbEntity
  8
AR_w_sld
100
AcDbPolyline
 90
2
 70
0
 10
4210.0
 20
4040.0
 10
4405.0
 20
4040.0
  0
LWPOLYLINE
  5
1B2
330
17
100
AcDbEntity
  8
AR_w_sld
100
AcDbPolyline
 90
2
 70
0
 10
4495.0
 20
4040.0
 10
4770.0
 20
4040.0
  0
LWPOLYLINE
  5
1B3
330
17
100
AcDbEntity
  8
AR_w_sld
100
AcDbPolyline
 90
2
 70
0
 10
4830.0
 20
4040.0
 10
5000.0
 20
4040.0
  0
LWPOLYLINE
  5
1B4
330
17
100
AcDbEntity
  8
AR_w_sld
100
AcDbPolyline
 90
2
 70
0
 10
5000.0
 20
4040.0
 10
5000.0
 20
4310.0
  0
LWPOLYLINE
  5
1B5
330
17
100
AcDbEntity
  8
AR_w_sld
100
AcDbPolyline
 90
2
 70
0
 10
5000.0
 20
4370.0
 10
5000.0
 20
4840.0
  0
LWPOLYLINE
  5
1B6
330
17
100
AcDbEntity
  8
AR_w_sld
100
AcDbPolyline
 90
2
 70
0
 10
5000.0
 20
4840.0
 10
4870.0
 20
4840.0
  0
LWPOLYLINE
  5
1B7
330
17
100
AcDbEntity
  8
AR_w_sld
100
AcDbPolyline
 90
2
 70
0
 10
4730.0
 20
4840.0
 10
4510.0
 20
4840.0
  0
LWPOLYLINE
  5
1B8
330
17
100
AcDbEntity
  8
AR_w_sld
100
AcDbPolyline
 90
2
 70
0
 10
4390.0
 20
4840.0
 10
4210.0
 20
4840.0
  0
LWPOLYLINE
  5
1B9
330
17
100
AcDbEntity
  8
AR_w_sld
100
AcDbPolyline
 90
2
 70
0
 10
4090.0
 20
4840.0
 10
4000.0
 20
4840.0
  0
LWPOLYLINE
  5
1BA
330
17
100
AcDbEntity
  8
AR_w_sld
100
AcDbPolyline
 90
2
 70
0
 10
4000.0
 20
4840.0
 10
4000.0
 20
4500.0
  0
LWPOLYLINE
  5
1BB
330
17
100
AcDbEntity
  8
AR_w_sld
100
AcDbPolyline
 90
2
 70
0
 10
4000.0
 20
4380.0
 10
4000.0
 20
4040.0
  0
LWPOLYLINE
  5
1BC
330
17
100
AcDbEntity
  8
AR_w_sld
100
AcDbPolyline
 90
2
 70
0
 10
4025.0
 20
4065.0
 10
4090.0
 20
4065.0
  0
LWPOLYLINE
  5
1BD
330
17
100
AcDbEntity
  8
AR_w_sld
100
AcDbPolyline
 90
2
 70
0
 10
4210.0
 20
4065.0
 10
4405.0
 20
4065.0
  0
LWPOLYLINE
  5
1BE
330
17
100
AcDbEntity
  8
AR_w_sld
100
AcDbPolyline
 90
2
 70
0
 10
4495.0
 20
4065.0
 10
4605.0
 20
4065.0
  0
LWPOLYLINE
  5
1BF
330
17
100
AcDbEntity
  8
AR_w_sld
100
AcDbPolyline
 90
2
 70
0
 10
4605.0
 20
4065.0
 10
4605.0
 20
4595.0
  0
LWPOLYLINE
  5
1C0
330
17
100
AcDbEntity
  8
AR_w_sld
100
AcDbPolyline
 90
2
 70
0
 10
4605.0
 20
4685.0
 10
4605.0
 20
4815.0
  0
LWPOLYLINE
  5
1C1
330
17
100
AcDbEntity
  8
AR_w_sld
100
AcDbPolyline
 90
2
 70
0
 10
4605.0
 20
4815.0
 10
4510.0
 20
4815.0
  0
LWPOLYLINE
  5
1C2
330
17
100
AcDbEntity
  8
AR_w_sld
100
AcDbPolyline
 90
2
 70
0
 10
4390.0
 20
4815.0
 10
4210.0
 20
4815.0
  0
LWPOLYLINE
  5
1C3
330
17
100
AcDbEntity
  8
AR_w_sld
100
AcDbPolyline
 90
2
 70
0
 10
4090.0
 20
4815.0
 10
4025.0
 20
4815.0
  0
LWPOLYLINE
  5
1C4
330
17
100
AcDbEntity
  8
AR_w_sld
100
AcDbPolyline
 90
2
 70
0
 10
4025.0
 20
4815.0
 10
4025.0
 20
4500.0
  0
LWPOLYLINE
  5
1C5
330
17
100
AcDbEntity
  8
AR_w_sld
100
AcDbPolyline
 90
2
 70
0
 10
4025.0
 20
4380.0
 10
4025.0
 20
4065.0
  0
LWPOLYLINE
  5
1C6
330
17
100
AcDbEntity
  8
AR_w_sld
100
AcDbPolyline
 90
2
 70
0
 10
4615.0
 20
4065.0
 10
4770.0
 20
4065.0
  0
LWPOLYLINE
  5
1C7
330
17
100
AcDbEntity
  8
AR_w_sld
100
AcDbPolyline
 90
2
 70
0
 10
4830.0
 20
4065.0
 10
4975.0
 20
4065.0
  0
LWPOLYLINE
  5
1C8
330
17
100
AcDbEntity
  8
AR_w_sld
100
AcDbPolyline
 90
2
 70
0
 10
4975.0
 20
4065.0
 10
4975.0
 20
4310.0
  0
LWPOLYLINE
  5
1C9
330
17
100
AcDbEntity
  8
AR_w_sld
100
AcDbPolyline
 90
2
 70
0
 10
4975.0
 20
4370.0
 10
4975.0
 20
4435.0
  0
LWPOLYLINE
  5
1CA
330
17
100
AcDbEntity
  8
AR_w_sld
100
AcDbPolyline
 90
2
 70
0
 10
4975.0
 20
4435.0
 10
4800.0
 20
4435.0
  0
LWPOLYLINE
  5
1CB
330
17
100
AcDbEntity
  8
AR_w_sld
100
AcDbPolyline
 90
2
 70
0
 10
4720.0
 20
4435.0
 10
4615.0
 20
4435.0
  0
LWPOLYLINE
  5
1CC
330
17
100
AcDbEntity
  8
AR_w_sld
100
AcDbPolyline
 90
2
 70
0
 10
4615.0
 20
4435.0
 10
4615.0
 20
4065.0
  0
LWPOLYLINE
  5
1CD
330
17
100
AcDbEntity
  8
AR_w_sld
100
AcDbPolyline
 90
2
 70
0
 10
4615.0
 20
4445.0
 10
4720.0
 20
4445.0
  0
LWPOLYLINE
  5
1CE
330
17
100
AcDbEntity
  8
AR_w_sld
100
AcDbPolyline
 90
2
 70
0
 10
4800.0
 20
4445.0
 10
4975.0
 20
4445.0
  0
LWPOLYLINE
  5
1CF
330
17
100
AcDbEntity
  8
AR_w_sld
100
AcDbPolyline
 90
2
 70
0
 10
4975.0
 20
4445.0
 10
4975.0
 20
4815.0
  0
LWPOLYLINE
  5
1D0
330
17
100
AcDbEntity
  8
AR_w_sld
100
AcDbPolyline
 90
2
 70
0
 10
4975.0
 20
4815.0
 10
4870.0
 20
4815.0
  0
LWPOLYLINE
  5
1D1
330
17
100
AcDbEntity
  8
AR_w_sld
100
AcDbPolyline
 90
2
 70
0
 10
4730.0
 20
4815.0
 10
4615.0
 20
4815.0
  0
LWPOLYLINE
  5
1D2
330
17
100
AcDbEntity
  8
AR_w_sld
100
AcDbPolyline
 90
2
 70
0
 10
4615.0
 20
4815.0
 10
4615.0
 20
4685.0
  0
LWPOLYLINE
  5
1D3
330
17
100
AcDbEntity
  8
AR_w_sld
100
AcDbPolyline
 90
2
 70
0
 10
4615.0
 20
4595.0
 10
4615.0
 20
4445.0
  0
LWPOLYLINE
  5
1D4
330
17
100
AcDbEntity
  8
S-BETON
100
AcDbPolyline
 90
4
 70
1
 10
4000.0
 20
4040.0
 10
4025.0
 20
4040.0
 10
4025.0
 20
4065.0
 10
4000.0
 20
4065.0
  0
LWPOLYLINE
  5
1D5
330
17
100
AcDbEntity
  8
S-BETON
100
AcDbPolyline
 90
4
 70
1
 10
4975.0
 20
4040.0
 10
5000.0
 20
4040.0
 10
5000.0
 20
4065.0
 10
4975.0
 20
4065.0
  0
LWPOLYLINE
  5
1D6
330
17
100
AcDbEntity
  8
S-BETON
100
AcDbPolyline
 90
4
 70
1
 10
4975.0
 20
4815.0
 10
5000.0
 20
4815.0
 10
5000.0
 20
4840.0
 10
4975.0
 20
4840.0
  0
LWPOLYLINE
  5
1D7
330
17
100
AcDbEntity
  8
S-BETON
100
AcDbPolyline
 90
4
 70
1
 10
4000.0
 20
4815.0
 10
4025.0
 20
4815.0
 10
4025.0
 20
4840.0
 10
4000.0
 20
4840.0
  0
LWPOLYLINE
  5
1D8
330
17
100
AcDbEntity
  8
S-BETON
100
AcDbPolyline
 90
4
 70
1
 10
4597.5
 20
4040.0
 10
4622.5
 20
4040.0
 10
4622.5
 20
4065.0
 10
4597.5
 20
4065.0
  0
LWPOLYLINE
  5
1D9
330
17
100
AcDbEntity
  8
S-BETON
100
AcDbPolyline
 90
4
 70
1
 10
4597.5
 20
4815.0
 10
4622.5
 20
4815.0
 10
4622.5
 20
4840.0
 10
4597.5
 20
4840.0
  0
INSERT
  5
1DA
330
17
100
AcDbEntity
  8
A_Kapi
100
AcDbBlockReference
  2
KAPI_CIFT_140
 10
4800.0
 20
4827.5
 30
0.0
 50
180.0
  0
INSERT
  5
1DC
330
17
100
AcDbEntity
  8
A_Kapi
100
AcDbBlockReference
  2
KAPI_90
 10
4610.0
 20
4640.0
 30
0.0
 50
90.0
  0
INSERT
  5
1DE
330
17
100
AcDbEntity
  8
A_Kapi
100
AcDbBlockReference
  2
KAPI_80
 10
4760.0
 20
4440.0
 30
0.0
 50
180.0
  0
INSERT
  5
1E0
330
17
100
AcDbEntity
  8
A_Kapi
100
AcDbBlockReference
  2
KAPI_90
 10
4450.0
 20
4052.5
 30
0.0
  0
INSERT
  5
1E2
330
17
100
AcDbEntity
  8
A_Pencere
100
AcDbBlockReference
  2
PENCERE_120
 10
4150.0
 20
4052.5
 30
0.0
  0
INSERT
  5
1E4
330
17
100
AcDbEntity
  8
A_Pencere
100
AcDbBlockReference
  2
PENCERE_60
 10
4800.0
 20
4052.5
 30
0.0
  0
INSERT
  5
1E6
330
17
100
AcDbEntity
  8
A_Pencere
100
AcDbBlockReference
  2
PENCERE_120
 10
4012.5
 20
4440.0
 30
0.0
 50
90.0
  0
INSERT
  5
1E8
330
17
100
AcDbEntity
  8
A_Pencere
100
AcDbBlockReference
  2
PENCERE_120
 10
4150.0
 20
4827.5
 30
0.0
  0
INSERT
  5
1EA
330
17
100
AcDbEntity
  8
A_Pencere
100
AcDbBlockReference
  2
PENCERE_120
 10
4450.0
 20
4827.5
 30
0.0
  0
INSERT
  5
1EC
330
17
100
AcDbEntity
  8
A_Pencere
100
AcDbBlockReference
  2
PENCERE_60
 10
4987.5
 20
4340.0
 30
0.0
 50
90.0
  0
INSERT
  5
1EE
330
17
100
AcDbEntity
  8
A_Mobilya
100
AcDbBlockReference
  2
YATAK_CIFT
 10
4300.0
 20
4710.0
 30
0.0
  0
INSERT
  5
1F0
330
17
100
AcDbEntity
  8
A_Mobilya
100
AcDbBlockReference
  2
KLOZET
 10
4940.0
 20
4280.0
 30
0.0
 50
270.0
  0
INSERT
  5
1F2
330
17
100
AcDbEntity
  8
A_Mobilya
100
AcDbBlockReference
  2
LAVABO
 10
4952.5
 20
4180.0
 30
0.0
 50
270.0
  0
INSERT
  5
1F4
330
17
100
AcDbEntity
  8
A_Mobilya
100
AcDbBlockReference
  2
DUS
 10
4670.0
 20
4120.0
 30
0.0
  0
INSERT
  5
1F6
330
17
100
AcDbEntity
  8
A_Mobilya
100
AcDbBlockReference
  2
MERDIVEN
 10
4925.0
 20
4640.0
 30
0.0
  0
MTEXT
  5
1F8
330
17
100
AcDbEntity
  8
A_Yazi
100
AcDbMText
 10
4100.0
 20
4500.0
 30
0.0
 40
20.0
 71
1
  1
\H20;YATAK ODASI\P43.5M2
  0
MTEXT
  5
1F9
330
17
100
AcDbEntity
  8
A_Yazi
100
AcDbMText
 10
4700.0
 20
4340.0
 30
0.0
 40
20.0
 71
1
  1
\H20;BANYO\P13.3M2
  0
MTEXT
  5
1FA
330
17
100
AcDbEntity
  8
A_Yazi
100
AcDbMText
 10
4635.0
 20
4700.0
 30
0.0
 40
20.0
 71
1
  1
\H20;HOL\P13.3M2
  0
LINE
  5
1FB
330
17
100
AcDbEntity
  8
A_Kesit_Cizgisi
  6
DASHDOT
100
AcDbLine
 10
4300.0
 20
3920.0
 30
0.0
 11
4300.0
 21
4940.0
 31
0.0
  0
LINE
  5
1FC
330
17
100
AcDbEntity
  8
A_Kesit_Cizgisi
100
AcDbLine
 10
4300.0
 20
3920.0
 30
0.0
 11
4240.0
 21
3920.0
 31
0.0
  0
LWPOLYLINE
  5
1FD
330
17
100
AcDbEntity
  8
A_Kesit_Cizgisi
100
AcDbPolyline
 90
3
 70
1
 10
4240.0
 20
3920.0
 10
4265.0
 20
3930.0
 10
4265.0
 20
3910.0
  0
TEXT
  5
1FE
330
17
100
AcDbEntity
  8
A_Yazi
100
AcDbText
 10
4315.0
 20
3905.0
 30
0.0
 40
30.0
  1
A
 11
4315.0
 21
3905.0
 31
0.0
100
AcDbText
  0
LINE
  5
1FF
330
17
100
AcDbEntity
  8
A_Kesit_Cizgisi
100
AcDbLine
 10
4300.0
 20
4940.0
 30
0.0
 11
4240.0
 21
4940.0
 31
0.0
  0
LWPOLYLINE
  5
200
330
17
100
AcDbEntity
  8
A_Kesit_Cizgisi
100
AcDbPolyline
 90
3
 70
1
 10
4240.0
 20
4940.0
 10
4265.0
 20
4950.0
 10
4265.0
 20
4930.0
  0
TEXT
  5
201
330
17
100
AcDbEntity
  8
A_Yazi
100
AcDbText
 10
4315.0
 20
4925.0
 30
0.0
 40
30.0
  1
A
 11
4315.0
 21
4925.0
 31
0.0
100
AcDbText
  0
MTEXT
  5
202
330
17
100
AcDbEntity
  8
A_Yazi
100
AcDbMText
 10
4000.0
 20
3840.0
 30
0.0
 40
30.0
 71
1
  1
\H30;ZEM\U+0130N KAT PLANI
  0
LWPOLYLINE
  5
203
330
17
100
AcDbEntity
  8
AR_w_sld
100
AcDbPolyline
 90
2
 70
0
 10
5750.0
 20
4075.0
 10
6750.0
 20
4075.0
  0
LWPOLYLINE
  5
204
330
17
100
AcDbEntity
  8
AR_w_sld
100
AcDbPolyline
 90
2
 70
0
 10
6750.0
 20
4075.0
 10
6750.0
 20
4645.0
  0
LWPOLYLINE
  5
205
330
17
100
AcDbEntity
  8
AR_w_sld
100
AcDbPolyline
 90
2
 70
0
 10
6750.0
 20
4705.0
 10
6750.0
 20
4875.0
  0
LWPOLYLINE
  5
206
330
17
100
AcDbEntity
  8
AR_w_sld
100
AcDbPolyline
 90
2
 70
0
 10
6750.0
 20
4875.0
 10
5750.0
 20
4875.0
  0
LWPOLYLINE
  5
207
330
17
100
AcDbEntity
  8
AR_w_sld
100
AcDbPolyline
 90
2
 70
0
 10
5750.0
 20
4875.0
 10
5750.0
 20
4535.0
  0
LWPOLYLINE
  5
208
330
17
100
AcDbEntity
  8
AR_w_sld
100
AcDbPolyline
 90
2
 70
0
 10
5750.0
 20
4415.0
 10
5750.0
 20
4075.0
  0
LWPOLYLINE
  5
209
330
17
100
AcDbEntity
  8
AR_w_sld
100
AcDbPolyline
 90
2
 70
0
 10
5775.0
 20
4100.0
 10
6355.0
 20
4100.0
  0
LWPOLYLINE
  5
20A
330
17
100
AcDbEntity
  8
AR_w_sld
100
AcDbPolyline
 90
2
 70
0
 10
6355.0
 20
4100.0
 10
6355.0
 20
4630.0
  0
LWPOLYLINE
  5
20B
330
17
100
AcDbEntity
  8
AR_w_sld
100
AcDbPolyline
 90
2
 70
0
 10
6355.0
 20
4720.0
 10
6355.0
 20
4850.0
  0
LWPOLYLINE
  5
20C
330
17
100
AcDbEntity
  8
AR_w_sld
100
AcDbPolyline
 90
2
 70
0
 10
6355.0
 20
4850.0
 10
5775.0
 20
4850.0
  0
LWPOLYLINE
  5
20D
330
17
100
AcDbEntity
  8
AR_w_sld
100
AcDbPolyline
 90
2
 70
0
 10
5775.0
 20
4850.0
 10
5775.0
 20
4535.0
  0
LWPOLYLINE
  5
20E
330
17
100
AcDbEntity
  8
AR_w_sld
100
AcDbPolyline
 90
2
 70
0
 10
5775.0
 20
4415.0
 10
5775.0
 20
4100.0
  0
LWPOLYLINE
  5
20F
330
17
100
AcDbEntity
  8
AR_w_sld
100
AcDbPolyline
 90
2
 70
0
 10
6365.0
 20
4100.0
 10
6725.0
 20
4100.0
  0
LWPOLYLINE
  5
210
330
17
100
AcDbEntity
  8
AR_w_sld
100
AcDbPolyline
 90
2
 70
0
 10
6725.0
 20
4100.0
 10
6725.0
 20
4470.0
  0
LWPOLYLINE
  5
211
330
17
100
AcDbEntity
  8
AR_w_sld
100
AcDbPolyline
 90
2
 70
0
 10
6725.0
 20
4470.0
 10
6550.0
 20
4470.0
  0
LWPOLYLINE
  5
212
330
17
100
AcDbEntity
  8
AR_w_sld
100
AcDbPolyline
 90
2
 70
0
 10
6470.0
 20
4470.0
 10
6365.0
 20
4470.0
  0
LWPOLYLINE
  5
213
330
17
100
AcDbEntity
  8
AR_w_sld
100
AcDbPolyline
 90
2
 70
0
 10
6365.0
 20
4470.0
 10
6365.0
 20
4100.0
  0
LWPOLYLINE
  5
214
330
17
100
AcDbEntity
  8
AR_w_sld
100
AcDbPolyline
 90
2
 70
0
 10
6365.0
 20
4480.0
 10
6470.0
 20
4480.0
  0
LWPOLYLINE
  5
215
330
17
100
AcDbEntity
  8
AR_w_sld
100
AcDbPolyline
 90
2
 70
0
 10
6550.0
 20
4480.0
 10
6725.0
 20
4480.0
  0
LWPOLYLINE
  5
216
330
17
100
AcDbEntity
  8
AR_w_sld
100
AcDbPolyline
 90
2
 70
0
 10
6725.0
 20
4480.0
 10
6725.0
 20
4645.0
  0
LWPOLYLINE
  5
217
330
17
100
AcDbEntity
  8
AR_w_sld
100
AcDbPolyline
 90
2
 70
0
 10
6725.0
 20
4705.0
 10
6725.0
 20
4850.0
  0
LWPOLYLINE
  5
218
330
17
100
AcDbEntity
  8
AR_w_sld
100
AcDbPolyline
 90
2
 70
0
 10
6725.0
 20
4850.0
 10
6365.0
 20
4850.0
  0
LWPOLYLINE
  5
219
330
17
100
AcDbEntity
  8
AR_w_sld
100
AcDbPolyline
 90
2
 70
0
 10
6365.0
 20
4850.0
 10
6365.0
 20
4720.0
  0
LWPOLYLINE
  5
21A
330
17
100
AcDbEntity
  8
AR_w_sld
100
AcDbPolyline
 90
2
 70
0
 10
6365.0
 20
4630.0
 10
6365.0
 20
4480.0
  0
LWPOLYLINE
  5
21B
330
17
100
AcDbEntity
  8
S-BETON
100
AcDbPolyline
 90
4
 70
1
 10
5750.0
 20
4075.0
 10
5775.0
 20
4075.0
 10
5775.0
 20
4100.0
 10
5750.0
 20
4100.0
  0
LWPOLYLINE
  5
21C
330
17
100
AcDbEntity
  8
S-BETON
100
AcDbPolyline
 90
4
 70
1
 10
6725.0
 20
4075.0
 10
6750.0
 20
4075.0
 10
6750.0
 20
4100.0
 10
6725.0
 20
4100.0
  0
LWPOLYLINE
  5
21D
330
17
100
AcDbEntity
  8
S-BETON
100
AcDbPolyline
 90
4
 70
1
 10
6725.0
 20
4850.0
 10
6750.0
 20
4850.0
 10
6750.0
 20
4875.0
 10
6725.0
 20
4875.0
  0
LWPOLYLINE
  5
21E
330
17
100
AcDbEntity
  8
S-BETON
100
AcDbPolyline
 90
4
 70
1
 10
5750.0
 20
4850.0
 10
5775.0
 20
4850.0
 10
5775.0
 20
4875.0
 10
5750.0
 20
4875.0
  0
LWPOLYLINE
  5
21F
330
17
100
AcDbEntity
  8
S-BETON
100
AcDbPolyline
 90
4
 70
1
 10
6347.5
 20
4075.0
 10
6372.5
 20
4075.0
 10
6372.5
 20
4100.0
 10
6347.5
 20
4100.0
  0
LWPOLYLINE
  5
220
330
17
100
AcDbEntity
  8
S-BETON
100
AcDbPolyline
 90
4
 70
1
 10
6347.5
 20
4850.0
 10
6372.5
 20
4850.0
 10
6372.5
 20
4875.0
 10
6347.5
 20
4875.0
  0
INSERT
  5
221
330
17
100
AcDbEntity
  8
A_Kapi
100
AcDbBlockReference
  2
KAPI_90
 10
6360.0
 20
4675.0
 30
0.0
 50
90.0
  0
INSERT
  5
223
330
17
100
AcDbEntity
  8
A_Kapi
100
AcDbBlockReference
  2
KAPI_80
 10
6510.0
 20
4475.0
 30
0.0
 50
180.0
  0
INSERT
  5
225
330
17
100
AcDbEntity
  8
A_Pencere
100
AcDbBlockReference
  2
PENCERE_120
 10
5762.5
 20
4475.0
 30
0.0
 50
90.0
  0
INSERT
  5
227
330
17
100
AcDbEntity
  8
A_Pencere
100
AcDbBlockReference
  2
PENCERE_60
 10
6737.5
 20
4675.0
 30
0.0
 50
90.0
  0
INSERT
  5
229
330
17
100
AcDbEntity
  8
A_Mobilya
100
AcDbBlockReference
  2
MERDIVEN
 10
6675.0
 20
4675.0
 30
0.0
  0
MTEXT
  5
22B
330
17
100
AcDbEntity
  8
A_Yazi
100
AcDbMText
 10
5850.0
 20
4535.0
 30
0.0
 40
20.0
 71
1
  1
\H20;OYUN ODASI\P43.5M2
  0
MTEXT
  5
22C
330
17
100
AcDbEntity
  8
A_Yazi
100
AcDbMText
 10
6450.0
 20
4375.0
 30
0.0
 40
20.0
 71
1
  1
\H20;TERAS\P13.3M2
  0
MTEXT
  5
22D
330
17
100
AcDbEntity
  8
A_Yazi
100
AcDbMText
 10
6385.0
 20
4735.0
 30
0.0
 40
20.0
 71
1
  1
\H20;HOL\P13.3M2
  0
LWPOLYLINE
  5
22E
330
17
100
AcDbEntity
  8
A_Cati
  6
DASHED
100
AcDbPolyline
 90
4
 70
1
 10
5700.0
 20
4025.0
 10
6800.0
 20
4025.0
 10
6800.0
 20
4925.0
 10
5700.0
 20
4925.0
  0
LINE
  5
22F
330
17
100
AcDbEntity
  8
A_Cati
  6
DASHED
100
AcDbLine
 10
5700.0
 20
4475.0
 30
0.0
 11
6800.0
 21
4475.0
 31
0.0
  0
MTEXT
  5
230
330
17
100
AcDbEntity
  8
A_Yazi
100
AcDbMText
 10
5700.0
 20
3955.0
 30
0.0
 40
30.0
 71
1
  1
\H30;«ATI KAT PLANI
  0
LWPOLYLINE
  5
231
330
17
100
AcDbEntity
  8
K_Kesit
100
AcDbPolyline
 90
4
 70
1
 10
1200.0
 20
1680.0
 10
2000.0
 20
1680.0
 10
2000.0
 20
1700.0
 10
1200.0
 20
1700.0
  0
LWPOLYLINE
  5
232
330
17
100
AcDbEntity
  8
K_Kesit
100
AcDbPolyline
 90
4
 70
1
 10
1200.0
 20
1980.0
 10
2000.0
 20
1980.0
 10
2000.0
 20
2000.0
 10
1200.0
 20
2000.0
  0
LWPOLYLINE
  5
233
330
17
100
AcDbEntity
  8
K_Kesit
100
AcDbPolyline
 90
4
 70
1
 10
1200.0
 20
2280.0
 10
2000.0
 20
2280.0
 10
2000.0
 20
2300.0
 10
1200.0
 20
2300.0
  0
LINE
  5
234
330
17
100
AcDbEntity
  8
K_Kesit
100
AcDbLine
 10
1200.0
 20
1700.0
 30
0.0
 11
1200.0
 21
1980.0
 31
0.0
  0
LINE
  5
235
330
17
100
AcDbEntity
  8
K_Kesit
100
AcDbLine
 10
1225.0
 20
1700.0
 30
0.0
 11
1225.0
 21
1980.0
 31
0.0
  0
LINE
  5
236
330
17
100
AcDbEntity
  8
K_Kesit
100
AcDbLine
 10
1200.0
 20
2000.0
 30
0.0
 11
1200.0
 21
2280.0
 31
0.0
  0
LINE
  5
237
330
17
100
AcDbEntity
  8
K_Kesit
100
AcDbLine
 10
1225.0
 20
2000.0
 30
0.0
 11
1225.0
 21
2280.0
 31
0.0
  0
LINE
  5
238
330
17
100
AcDbEntity
  8
K_Kesit
100
AcDbLine
 10
1200.0
 20
2300.0
 30
0.0
 11
1200.0
 21
2400.0
 31
0.0
  0
LINE
  5
239
330
17
100
AcDbEntity
  8
K_Kesit
100
AcDbLine
 10
1225.0
 20
2300.0
 30
0.0
 11
1225.0
 21
2417.5052
 31
0.0
  0
LINE
  5
23A
330
17
100
AcDbEntity
  8
K_Kesit
100
AcDbLine
 10
2000.0
 20
1700.0
 30
0.0
 11
2000.0
 21
1980.0
 31
0.0
  0
LINE
  5
23B
330
17
100
AcDbEntity
  8
K_Kesit
100
AcDbLine
 10
1975.0
 20
1700.0
 30
0.0
 11
1975.0
 21
1980.0
 31
0.0
  0
LINE
  5
23C
330
17
100
AcDbEntity
  8
K_Kesit
100
AcDbLine
 10
2000.0
 20
2000.0
 30
0.0
 11
2000.0
 21
2280.0
 31
0.0
  0
LINE
  5
23D
330
17
100
AcDbEntity
  8
K_Kesit
100
AcDbLine
 10
1975.0
 20
2000.0
 30
0.0
 11
1975.0
 21
2280.0
 31
0.0
  0
LINE
  5
23E
330
17
100
AcDbEntity
  8
K_Kesit
100
AcDbLine
 10
2000.0
 20
2300.0
 30
0.0
 11
2000.0
 21
2400.0
 31
0.0
  0
LINE
  5
23F
330
17
100
AcDbEntity
  8
K_Kesit
100
AcDbLine
 10
1975.0
 20
2300.0
 30
0.0
 11
1975.0
 21
2417.5052
 31
0.0
  0
LINE
  5
240
330
17
100
AcDbEntity
  8
K_Zemin
100
AcDbLine
 10
900.0
 20
2000.0
 30
0.0
 11
1200.0
 21
2000.0
 31
0.0
  0
LINE
  5
241
330
17
100
AcDbEntity
  8
K_Zemin
100
AcDbLine
 10
2000.0
 20
2000.0
 30
0.0
 11
2300.0
 21
2000.0
 31
0.0
  0
LWPOLYLINE
  5
242
330
17
100
AcDbEntity
  8
K_Cati
100
AcDbPolyline
 90
6
 70
1
 10
1150.0
 20
2395.509
 10
1600.0
 20
2710.6024
 10
2050.0
 20
2395.509
 10
2050.0
 20
2364.9896
 10
1600.0
 20
2680.083
 10
1150.0
 20
2364.9896
  0
LWPOLYLINE
  5
243
330
17
100
AcDbEntity
  8
K_Kot
100
AcDbPolyline
 90
3
 70
1
 10
845.0
 20
1725.0
 10
875.0
 20
1725.0
 10
860.0
 20
1700.0
  0
LINE
  5
244
330
17
100
AcDbEntity
  8
K_Kot
100
AcDbLine
 10
860.0
 20
1700.0
 30
0.0
 11
1200.0
 21
1700.0
 31
0.0
  0
TEXT
  5
245
330
17
100
AcDbEntity
  8
A_Yazi
100
AcDbText
 10
730.0
 20
1705.0
 30
0.0
 40
25.0
  1
-3.00
 11
730.0
 21
1705.0
 31
0.0
100
AcDbText
  0
LWPOLYLINE
  5
246
330
17
100
AcDbEntity
  8
K_Kot
100
AcDbPolyline
 90
3
 70
1
 10
845.0
 20
2025.0
 10
875.0
 20
2025.0
 10
860.0
 20
2000.0
  0
LINE
  5
247
330
17
100
AcDbEntity
  8
K_Kot
100
AcDbLine
 10
860.0
 20
2000.0
 30
0.0
 11
900.0
 21
2000.0
 31
0.0
  0
TEXT
  5
248
330
17
100
AcDbEntity
  8
A_Yazi
100
AcDbText
 10
730.0
 20
2005.0
 30
0.0
 40
25.0
  1
±0.00
 11
730.0
 21
2005.0
 31
0.0
100
AcDbText
  0
LWPOLYLINE
  5
249
330
17
100
AcDbEntity
  8
K_Kot
100
AcDbPolyline
 90
3
 70
1
 10
845.0
 20
2325.0
 10
875.0
 20
2325.0
 10
860.0
 20
2300.0
  0
LINE
  5
24A
330
17
100
AcDbEntity
  8
K_Kot
100
AcDbLine
 10
860.0
 20
2300.0
 30
0.0
 11
1200.0
 21
2300.0
 31
0.0
  0
TEXT
  5
24B
330
17
100
AcDbEntity
  8
A_Yazi
100
AcDbText
 10
730.0
 20
2305.0
 30
0.0
 40
25.0
  1
+3.00
 11
730.0
 21
2305.0
 31
0.0
100
AcDbText
  0
TEXT
  5
24C
330
17
100
AcDbEntity
  8
A_Yazi
100
AcDbText
 10
845.0
 20
1580.0
 30
0.0
 40
30.0
  1
A-A KES\U+0130T\U+0130
 11
845.0
 21
1580.0
 31
0.0
100
AcDbText
  0
LINE
  5
24D
330
17
100
AcDbEntity
  8
K_Zemin
100
AcDbLine
 10
3700.0
 20
1990.0
 30
0.0
 11
5300.0
 21
1990.0
 31
0.0
  0
LWPOLYLINE
  5
24E
330
17
100
AcDbEntity
  8
G_Cephe
100
AcDbPolyline
 90
4
 70
1
 10
4000.0
 20
1990.0
 10
5000.0
 20
1990.0
 10
5000.0
 20
2354.9896
 10
4000.0
 20
2354.9896
  0
LWPOLYLINE
  5
24F
330
17
100
AcDbEntity
  8
G_Cephe
100
AcDbPolyline
 90
4
 70
1
 10
3950.0
 20
2354.9896
 10
5050.0
 20
2354.9896
 10
5050.0
 20
2700.6024
 10
3950.0
 20
2700.6024
  0
LINE
  5
250
330
17
100
AcDbEntity
  8
G_Cephe
100
AcDbLine
 10
3950.0
 20
2385.509
 30
0.0
 11
5050.0
 21
2385.509
 31
0.0
  0
LWPOLYLINE
  5
251
330
17
100
AcDbEntity
  8
G_Tarama
100
AcDbPolyline
 90
4
 70
1
 10
4000.0
 20
1990.0
 10
5000.0
 20
1990.0
 10
5000.0
 20
2050.0
 10
4000.0
 20
2050.0
  0
HATCH
  5
252
330
17
100
AcDbEntity
  8
G_Tarama
 62
7
100
AcDbHatch
 10
0.0
 20
0.0
 30
0.0
210
0.0
220
0.0
230
1.0
  2
ANSI31
 70
0
 71
0
 91
1
 92
3
 72
0
 73
1
 93
4
 10
4000.0
 20
1990.0
 10
5000.0
 20
1990.0
 10
5000.0
 20
2050.0
 10
4000.0
 20
2050.0
 97
0
 75
1
 76
1
 52
0.0
 41
3.0
 77
0
 78
1
 53
45.0
 43
0.0
 44
0.0
 45
-6.7351920909
 46
6.7351920909
 79
0
 98
0
  0
LWPOLYLINE
  5
253
330
17
100
AcDbEntity
  8
G_Kapi
100
AcDbPolyline
 90
4
 70
1
 10
4405.0
 20
1990.0
 10
4495.0
 20
1990.0
 10
4495.0
 20
2200.0
 10
4405.0
 20
2200.0
  0
LINE
  5
254
330
17
100
AcDbEntity
  8
G_Kapi
100
AcDbLine
 10
4480.0
 20
2090.0
 30
0.0
 11
4480.0
 21
2105.0
 31
0.0
  0
LWPOLYLINE
  5
255
330
17
100
AcDbEntity
  8
G_Pencere
100
AcDbPolyline
 90
4
 70
1
 10
4090.0
 20
2080.0
 10
4210.0
 20
2080.0
 10
4210.0
 20
2200.0
 10
4090.0
 20
2200.0
  0
LWPOLYLINE
  5
256
330
17
100
AcDbEntity
  8
G_Pencere
100
AcDbPolyline
 90
4
 70
1
 10
4770.0
 20
2140.0
 10
4830.0
 20
2140.0
 10
4830.0
 20
2200.0
 10
4770.0
 20
2200.0
  0
TEXT
  5
257
330
17
100
AcDbEntity
  8
A_Yazi
100
AcDbText
 10
5120.0
 20
2240.0
 30
0.0
 40
20.0
  1
SIVA
 11
5120.0
 21
2240.0
 31
0.0
100
AcDbText
  0
LINE
  5
258
330
17
100
AcDbEntity
  8
G_Cephe
100
AcDbLine
 10
5110.0
 20
2250.0
 30
0.0
 11
4960.0
 21
2250.0
 31
0.0
  0
TEXT
  5
259
330
17
100
AcDbEntity
  8
A_Yazi
100
AcDbText
 10
5120.0
 20
2015.0
 30
0.0
 40
20.0
  1
TA\U+015e KAPLAMA
 11
5120.0
 21
2015.0
 31
0.0
100
AcDbText
  0
LINE
  5
25A
330
17
100
AcDbEntity
  8
G_Cephe
100
AcDbLine
 10
5110.0
 20
2020.0
 30
0.0
 11
4960.0
 21
2020.0
 31
0.0
  0
TEXT
  5
25B
330
17
100
AcDbEntity
  8
A_Yazi
100
AcDbText
 10
5120.0
 20
2530.0
 30
0.0
 40
20.0
  1
K\U+0130REM\U+0130T
 11
5120.0
 21
2530.0
 31
0.0
100
AcDbText
  0
LINE
  5
25C
330
17
100
AcDbEntity
  8
G_Cephe
100
AcDbLine
 10
5110.0
 20
2540.0
 30
0.0
 11
4960.0
 21
2540.0
 31
0.0
  0
TEXT
  5
25D
330
17
100
AcDbEntity
  8
A_Yazi
100
AcDbText
 10
3700.0
 20
1890.0
 30
0.0
 40
30.0
  1
G‹NEY G÷R‹N‹\U+015e‹
 11
3700.0
 21
1890.0
 31
0.0
100
AcDbText
  0
LINE
  5
25E
330
17
100
AcDbEntity
  8
K_Zemin
100
AcDbLine
 10
5900.0
 20
1980.0
 30
0.0
 11
7300.0
 21
1980.0
 31
0.0
  0
LWPOLYLINE
  5
25F
330
17
100
AcDbEntity
  8
G_Cephe
100
AcDbPolyline
 90
5
 70
1
 10
6200.0
 20
1980.0
 10
7000.0
 20
1980.0
 10
7000.0
 20
2380.0
 10
6600.0
 20
2660.083
 10
6200.0
 20
2380.0
  0
LWPOLYLINE
  5
260
330
17
100
AcDbEntity
  8
K_Cati
100
AcDbPolyline
 90
6
 70
1
 10
6150.0
 20
2375.509
 10
6600.0
 20
2690.6024
 10
7050.0
 20
2375.509
 10
7050.0
 20
2344.9896
 10
6600.0
 20
2660.083
 10
6150.0
 20
2344.9896
  0
LWPOLYLINE
  5
261
330
17
100
AcDbEntity
  8
G_Pencere
100
AcDbPolyline
 90
4
 70
1
 10
6470.0
 20
2130.0
 10
6530.0
 20
2130.0
 10
6530.0
 20
2190.0
 10
6470.0
 20
2190.0
  0
LWPOLYLINE
  5
262
330
17
100
AcDbEntity
  8
G_Pencere
100
AcDbPolyline
 90
4
 70
1
 10
6770.0
 20
2340.0
 10
6830.0
 20
2340.0
 10
6830.0
 20
2440.0
 10
6770.0
 20
2440.0
  0
TEXT
  5
263
330
17
100
AcDbEntity
  8
A_Yazi
100
AcDbText
 10
7120.0
 20
2230.0
 30
0.0
 40
20.0
  1
SIVA
 11
7120.0
 21
2230.0
 31
0.0
100
AcDbText
  0
LINE
  5
264
330
17
100
AcDbEntity
  8
G_Cephe
100
AcDbLine
 10
7110.0
 20
2240.0
 30
0.0
 11
6960.0
 21
2240.0
 31
0.0
  0
TEXT
  5
265
330
17
100
AcDbEntity
  8
A_Yazi
100
AcDbText
 10
5900.0
 20
1880.0
 30
0.0
 40
30.0
  1
DO\U+011eU G÷R‹N‹\U+015e‹
 11
5900.0
 21
1880.0
 31
0.0
100
AcDbText
  0
LWPOLYLINE
  5
266
330
17
100
AcDbEntity
  8
V_Parsel
  6
DASHDOT
100
AcDbPolyline
 90
4
 70
1
 10
8000.0
 20
2000.0
 10
10400.0
 20
2000.0
 10
10400.0
 20
4000.0
 10
8000.0
 20
4000.0
  0
LWPOLYLINE
  5
267
330
17
100
AcDbEntity
  8
V_Sinir_Duv
100
AcDbPolyline
 90
4
 70
1
 10
8005.0
 20
2005.0
 10
10395.0
 20
2005.0
 10
10395.0
 20
3995.0
 10
8005.0
 20
3995.0
  0
LWPOLYLINE
  5
268
330
17
100
AcDbEntity
  8
V_Sinir_Duv
100
AcDbPolyline
 90
4
 70
1
 10
8025.0
 20
2025.0
 10
10375.0
 20
2025.0
 10
10375.0
 20
3975.0
 10
8025.0
 20
3975.0
  0
LWPOLYLINE
  5
269
330
17
100
AcDbEntity
  8
V_Bina
100
AcDbPolyline
 90
4
 70
1
 10
8600.0
 20
2700.0
 10
9600.0
 20
2700.0
 10
9600.0
 20
3500.0
 10
8600.0
 20
3500.0
  0
LWPOLYLINE
  5
26A
330
17
100
AcDbEntity
  8
V_Yol
100
AcDbPolyline
 90
4
 70
1
 10
9700.0
 20
3550.0
 10
10200.0
 20
3550.0
 10
10200.0
 20
3950.0
 10
9700.0
 20
3950.0
  0
LWPOLYLINE
  5
26B
330
17
100
AcDbEntity
  8
V_Yol
100
AcDbPolyline
 90
4
 70
1
 10
7800.0
 20
4050.0
 10
10600.0
 20
4050.0
 10
10600.0
 20
4450.0
 10
7800.0
 20
4450.0
  0
INSERT
  5
26C
330
17
100
AcDbEntity
  8
V_Agac
100
AcDbBlockReference
  2
AGAC
 10
8250.0
 20
2350.0
 30
0.0
  0
INSERT
  5
26E
330
17
100
AcDbEntity
  8
V_Agac
100
AcDbBlockReference
  2
AGAC
 10
9950.0
 20
2250.0
 30
0.0
  0
INSERT
  5
270
330
17
100
AcDbEntity
  8
V_Agac
100
AcDbBlockReference
  2
AGAC
 10
8300.0
 20
3700.0
 30
0.0
  0
INSERT
  5
272
330
17
100
AcDbEntity
  8
V_Kuzey
100
AcDbBlockReference
  2
KUZEY
 10
10100.0
 20
2900.0
 30
0.0
  0
TEXT
  5
274
330
17
100
AcDbEntity
  8
A_Yazi
100
AcDbText
 10
10080.0
 20
2995.0
 30
0.0
 40
30.0
  1
N
 11
10080.0
 21
2995.0
 31
0.0
100
AcDbText
  0
TEXT
  5
275
330
17
100
AcDbEntity
  8
A_Yazi
100
AcDbText
 10
9830.0
 20
3720.0
 30
0.0
 40
25.0
  1
OTOPARK
 11
9830.0
 21
3720.0
 31
0.0
100
AcDbText
  0
TEXT
  5
276
330
17
100
AcDbEntity
  8
A_Yazi
100
AcDbText
 10
8750.0
 20
2300.0
 30
0.0
 40
25.0
  1
BAH«E
 11
8750.0
 21
2300.0
 31
0.0
100
AcDbText
  0
TEXT
  5
277
330
17
100
AcDbEntity
  8
A_Yazi
100
AcDbText
 10
9250.0
 20
4220.0
 30
0.0
 40
25.0
  1
YOL
 11
9250.0
 21
4220.0
 31
0.0
100
AcDbText
  0
TEXT
  5
278
330
17
100
AcDbEntity
  8
A_Yazi
100
AcDbText
 10
7800.0
 20
1900.0
 30
0.0
 40
30.0
  1
VAZ\U+0130YET PLANI
 11
7800.0
 21
1900.0
 31
0.0
100
AcDbText
  0
LWPOLYLINE
  5
279
330
17
100
AcDbEntity
  8
A_Lejant
100
AcDbPolyline
 90
4
 70
1
 10
8600.0
 20
800.0
 10
10400.0
 20
800.0
 10
10400.0
 20
1550.0
 10
8600.0
 20
1550.0
  0
LINE
  5
27A
330
17
100
AcDbEntity
  8
A_Lejant
100
AcDbLine
 10
8650.0
 20
1450.0
 30
0.0
 11
8850.0
 21
1450.0
 31
0.0
  0
LINE
  5
27B
330
17
100
AcDbEntity
  8
A_Lejant
100
AcDbLine
 10
8650.0
 20
1475.0
 30
0.0
 11
8850.0
 21
1475.0
 31
0.0
  0
TEXT
  5
27C
330
17
100
AcDbEntity
  8
A_Yazi
100
AcDbText
 10
8920.0
 20
1445.0
 30
0.0
 40
20.0
  1
DUVAR
 11
8920.0
 21
1445.0
 31
0.0
100
AcDbText
  0
LWPOLYLINE
  5
27D
330
17
100
AcDbEntity
  8
A_Lejant
100
AcDbPolyline
 90
4
 70
1
 10
8710.0
 20
1320.0
 10
8740.0
 20
1320.0
 10
8740.0
 20
1350.0
 10
8710.0
 20
1350.0
  0
TEXT
  5
27E
330
17
100
AcDbEntity
  8
A_Yazi
100
AcDbText
 10
8920.0
 20
1325.0
 30
0.0
 40
20.0
  1
KOLON
 11
8920.0
 21
1325.0
 31
0.0
100
AcDbText
  0
LINE
  5
27F
330
17
100
AcDbEntity
  8
A_Lejant
100
AcDbLine
 10
8660.0
 20
1210.0
 30
0.0
 11
8660.0
 21
1300.0
 31
0.0
  0
ARC
  5
280
330
17
100
AcDbEntity
  8
A_Lejant
100
AcDbCircle
 10
8660.0
 20
1210.0
 30
0.0
 40
90.0
100
AcDbArc
 50
0.0
 51
90.0
  0
TEXT
  5
281
330
17
100
AcDbEntity
  8
A_Yazi
100
AcDbText
 10
8920.0
 20
1205.0
 30
0.0
 40
20.0
  1
KAPI
 11
8920.0
 21
1205.0
 31
0.0
100
AcDbText
  0
LINE
  5
282
330
17
100
AcDbEntity
  8
A_Lejant
  6
DASHED
100
AcDbLine
 10
8650.0
 20
1090.0
 30
0.0
 11
8850.0
 21
1090.0
 31
0.0
  0
TEXT
  5
283
330
17
100
AcDbEntity
  8
A_Yazi
100
AcDbText
 10
8920.0
 20
1085.0
 30
0.0
 40
20.0
  1
«ATI «IKI\U+015eI
 11
8920.0
 21
1085.0
 31
0.0
100
AcDbText
  0
LWPOLYLINE
  5
284
330
17
100
AcDbEntity
  8
A_Lejant
100
AcDbPolyline
 90
4
 70
1
 10
8650.0
 20
940.0
 10
8850.0
 20
940.0
 10
8850.0
 20
980.0
 10
8650.0
 20
980.0
  0
HATCH
  5
285
330
17
100
AcDbEntity
  8
A_Lejant
 62
7
100
AcDbHatch
 10
0.0
 20
0.0
 30
0.0
210
0.0
220
0.0
230
1.0
  2
ANSI31
 70
0
 71
0
 91
1
 92
3
 72
0
 73
1
 93
4
 10
8650.0
 20
940.0
 10
8850.0
 20
940.0
 10
8850.0
 20
980.0
 10
8650.0
 20
980.0
 97
0
 75
1
 76
1
 52
0.0
 41
3.0
 77
0
 78
1
 53
45.0
 43
0.0
 44
0.0
 45
-6.7351920909
 46
6.7351920909
 79
0
 98
0
  0
TEXT
  5
286
330
17
100
AcDbEntity
  8
A_Yazi
100
AcDbText
 10
8920.0
 20
945.0
 30
0.0
 40
20.0
  1
TA\U+015e KAPLAMA
 11
8920.0
 21
945.0
 31
0.0
100
AcDbText
  0
TEXT
  5
287
330
17
100
AcDbEntity
  8
A_Yazi
100
AcDbText
 10
8600.0
 20
700.0
 30
0.0
 40
30.0
  1
LEJANT
 11
8600.0
 21
700.0
 31
0.0
100
AcDbText
  0
LWPOLYLINE
  5
288
330
17
100
AcDbEntity
  8
A_Antet
100
AcDbPolyline
 90
4
 70
1
 10
5000.0
 20
0.0
 10
11000.0
 20
0.0
 10
11000.0
 20
360.0
 10
5000.0
 20
360.0
  0
LINE
  5
289
330
17
100
AcDbEntity
  8
A_Antet
100
AcDbLine
 10
5000.0
 20
180.0
 30
0.0
 11
11000.0
 21
180.0
 31
0.0
  0
TEXT
  5
28A
330
17
100
AcDbEntity
  8
A_Yazi
100
AcDbText
 10
5020.0
 20
235.0
 30
0.0
 40
20.0
  1
PROJE
 11
5020.0
 21
235.0
 31
0.0
100
AcDbText
  0
TEXT
  5
28B
330
17
100
AcDbEntity
  8
A_Yazi
100
AcDbText
 10
5020.0
 20
70.0
 30
0.0
 40
40.0
  1
÷RNEK KONUT
 11
5020.0
 21
70.0
 31
0.0
100
AcDbText
  0
LINE
  5
28C
330
17
100
AcDbEntity
  8
A_Antet
100
AcDbLine
 10
6200.0
 20
0.0
 30
0.0
 11
6200.0
 21
360.0
 31
0.0
  0
TEXT
  5
28D
330
17
100
AcDbEntity
  8
A_Yazi
100
AcDbText
 10
6220.0
 20
235.0
 30
0.0
 40
20.0
  1
«\U+0130ZEN
 11
6220.0
 21
235.0
 31
0.0
100
AcDbText
  0
TEXT
  5
28E
330
17
100
AcDbEntity
  8
A_Yazi
100
AcDbText
 10
6220.0
 20
70.0
 30
0.0
 40
40.0
  1
WENART
 11
6220.0
 21
70.0
 31
0.0
100
AcDbText
  0
LINE
  5
28F
330
17
100
AcDbEntity
  8
A_Antet
100
AcDbLine
 10
7400.0
 20
0.0
 30
0.0
 11
7400.0
 21
360.0
 31
0.0
  0
TEXT
  5
290
330
17
100
AcDbEntity
  8
A_Yazi
100
AcDbText
 10
7420.0
 20
235.0
 30
0.0
 40
20.0
  1
÷L«EK 1/100
 11
7420.0
 21
235.0
 31
0.0
100
AcDbText
  0
LINE
  5
291
330
17
100
AcDbEntity
  8
A_Antet
100
AcDbLine
 10
8600.0
 20
0.0
 30
0.0
 11
8600.0
 21
360.0
 31
0.0
  0
TEXT
  5
292
330
17
100
AcDbEntity
  8
A_Yazi
100
AcDbText
 10
8620.0
 20
235.0
 30
0.0
 40
20.0
  1
TAR\U+0130H
 11
8620.0
 21
235.0
 31
0.0
100
AcDbText
  0
TEXT
  5
293
330
17
100
AcDbEntity
  8
A_Yazi
100
AcDbText
 10
8620.0
 20
70.0
 30
0.0
 40
40.0
  1
08.10.2026
 11
8620.0
 21
70.0
 31
0.0
100
AcDbText
  0
LINE
  5
294
330
17
100
AcDbEntity
  8
A_Antet
100
AcDbLine
 10
9800.0
 20
0.0
 30
0.0
 11
9800.0
 21
360.0
 31
0.0
  0
TEXT
  5
295
330
17
100
AcDbEntity
  8
A_Yazi
100
AcDbText
 10
9820.0
 20
235.0
 30
0.0
 40
20.0
  1
PAFTA
 11
9820.0
 21
235.0
 31
0.0
100
AcDbText
  0
TEXT
  5
296
330
17
100
AcDbEntity
  8
A_Yazi
100
AcDbText
 10
9820.0
 20
70.0
 30
0.0
 40
40.0
  1
A-01
 11
9820.0
 21
70.0
 31
0.0
100
AcDbText
  0
LINE
  5
297
330
17
100
AcDbEntity
  8
0
100
AcDbLine
 10
-90000.0
 20
80000.0
 30
0.0
 11
-89900.0
 21
80400.0
 31
0.0
  0
ENDSEC
  0
SECTION
  2
OBJECTS
  0
DICTIONARY
  5
A
330
0
100
AcDbDictionary
281
1
  3
ACAD_COLOR
350
B
  3
ACAD_GROUP
350
C
  3
ACAD_LAYOUT
350
D
  3
ACAD_MATERIAL
350
E
  3
ACAD_MLEADERSTYLE
350
F
  3
ACAD_MLINESTYLE
350
10
  3
ACAD_PLOTSETTINGS
350
11
  3
ACAD_PLOTSTYLENAME
350
12
  3
ACAD_SCALELIST
350
14
  3
ACAD_TABLESTYLE
350
15
  3
ACAD_VISUALSTYLE
350
16
  3
EZDXF_META
350
2D
  0
DICTIONARY
  5
B
330
A
100
AcDbDictionary
281
1
  0
DICTIONARY
  5
C
330
A
100
AcDbDictionary
281
1
  0
DICTIONARY
  5
D
330
A
100
AcDbDictionary
281
1
  3
Model
350
1A
  3
Layout1
350
1E
  0
DICTIONARY
  5
E
330
A
100
AcDbDictionary
281
1
  3
ByBlock
350
1F
  3
ByLayer
350
20
  3
Global
350
21
  0
DICTIONARY
  5
F
330
A
100
AcDbDictionary
281
1
  3
Standard
350
2C
  0
DICTIONARY
  5
10
330
A
100
AcDbDictionary
281
1
  3
Standard
350
22
  0
DICTIONARY
  5
11
330
A
100
AcDbDictionary
281
1
  0
ACDBDICTIONARYWDFLT
  5
12
330
A
100
AcDbDictionary
281
1
  3
Normal
350
13
100
AcDbDictionaryWithDefault
340
13
  0
ACDBPLACEHOLDER
  5
13
330
12
  0
DICTIONARY
  5
14
330
A
100
AcDbDictionary
281
1
  0
DICTIONARY
  5
15
330
A
100
AcDbDictionary
281
1
  0
DICTIONARY
  5
16
330
A
100
AcDbDictionary
281
1
  3
2dWireframe
350
5A
  3
Basic
350
5B
  3
Brighten
350
5C
  3
ColorChange
350
5D
  3
Conceptual
350
5E
  3
Dim
350
5F
  3
EdgeColorOff
350
60
  3
Facepattern
350
61
  3
Flat
350
62
  3
FlatWithEdges
350
63
  3
Gouraud
350
64
  3
GouraudWithEdges
350
65
  3
Hidden
350
66
  3
JitterOff
350
67
  3
Linepattern
350
68
  3
Modeling
350
69
  3
OverhangOff
350
6A
  3
Realistic
350
6B
  3
Shaded
350
6C
  3
Shaded with edges
350
6D
  3
Shades of Gray
350
6E
  3
Sketchy
350
6F
  3
Thicken
350
70
  3
Wireframe
350
71
  3
X-Ray
350
72
  0
LAYOUT
  5
1A
330
D
100
AcDbPlotSettings
  1

  4
A3
  6

 40
7.5
 41
20.0
 42
7.5
 43
20.0
 44
420.0
 45
297.0
 46
0.0
 47
0.0
 48
0.0
 49
0.0
140
0.0
141
0.0
142
1.0
143
1.0
 70
1024
 72
1
 73
0
 74
5
  7

 75
16
 76
0
 77
2
 78
300
147
1.0
148
0.0
149
0.0
100
AcDbLayout
  1
Model
 70
1
 71
0
 10
0.0
 20
0.0
 11
420.0
 21
297.0
 12
0.0
 22
0.0
 32
0.0
 14
1e+20
 24
1e+20
 34
1e+20
 15
-1e+20
 25
-1e+20
 35
-1e+20
146
0.0
 13
0.0
 23
0.0
 33
0.0
 16
1.0
 26
0.0
 36
0.0
 17
0.0
 27
1.0
 37
0.0
 76
1
330
17
  0
LAYOUT
  5
1E
330
D
100
AcDbPlotSettings
  1

  4
A3
  6

 40
7.5
 41
20.0
 42
7.5
 43
20.0
 44
420.0
 45
297.0
 46
0.0
 47
0.0
 48
0.0
 49
0.0
140
0.0
141
0.0
142
1.0
143
1.0
 70
0
 72
1
 73
0
 74
5
  7

 75
16
 76
0
 77
2
 78
300
147
1.0
148
0.0
149
0.0
100
AcDbLayout
  1
Layout1
 70
1
 71
1
 10
0.0
 20
0.0
 11
420.0
 21
297.0
 12
0.0
 22
0.0
 32
0.0
 14
1e+20
 24
1e+20
 34
1e+20
 15
-1e+20
 25
-1e+20
 35
-1e+20
146
0.0
 13
0.0
 23
0.0
 33
0.0
 16
1.0
 26
0.0
 36
0.0
 17
0.0
 27
1.0
 37
0.0
 76
1
330
1B
  0
MATERIAL
  5
1F
102
{ACAD_REACTORS
330
E
102
}
330
E
100
AcDbMaterial
  1
ByBlock
  2

 70
0
 40
1.0
 71
1
 41
1.0
 91
-1023410177
 42
1.0
 72
1
  3

 73
1
 74
1
 75
1
 44
0.5
 73
0
 45
1.0
 46
1.0
 77
1
  4

 78
1
 79
1
170
1
 48
1.0
171
1
  6

172
1
173
1
174
1
140
1.0
141
1.0
175
1
  7

176
1
177
1
178
1
143
1.0
179
1
  8

270
1
271
1
272
1
145
1.0
146
1.0
273
1
  9

274
1
275
1
276
1
 42
1.0
 72
1
  3

 73
1
 74
1
 75
1
 94
63
  0
MATERIAL
  5
20
102
{ACAD_REACTORS
330
E
102
}
330
E
100
AcDbMaterial
  1
ByLayer
  2

 70
0
 40
1.0
 71
1
 41
1.0
 91
-1023410177
 42
1.0
 72
1
  3

 73
1
 74
1
 75
1
 44
0.5
 73
0
 45
1.0
 46
1.0
 77
1
  4

 78
1
 79
1
170
1
 48
1.0
171
1
  6

172
1
173
1
174
1
140
1.0
141
1.0
175
1
  7

176
1
177
1
178
1
143
1.0
179
1
  8

270
1
271
1
272
1
145
1.0
146
1.0
273
1
  9

274
1
275
1
276
1
 42
1.0
 72
1
  3

 73
1
 74
1
 75
1
 94
63
  0
MATERIAL
  5
21
102
{ACAD_REACTORS
330
E
102
}
330
E
100
AcDbMaterial
  1
Global
  2

 70
0
 40
1.0
 71
1
 41
1.0
 91
-1023410177
 42
1.0
 72
1
  3

 73
1
 74
1
 75
1
 44
0.5
 73
0
 45
1.0
 46
1.0
 77
1
  4

 78
1
 79
1
170
1
 48
1.0
171
1
  6

172
1
173
1
174
1
140
1.0
141
1.0
175
1
  7

176
1
177
1
178
1
143
1.0
179
1
  8

270
1
271
1
272
1
145
1.0
146
1.0
273
1
  9

274
1
275
1
276
1
 42
1.0
 72
1
  3

 73
1
 74
1
 75
1
 94
63
  0
MLINESTYLE
  5
22
102
{ACAD_REACTORS
330
10
102
}
330
10
100
AcDbMlineStyle
  2
Standard
 70
0
  3

 62
256
 51
90.0
 52
90.0
 71
2
 49
0.5
 62
256
  6
BYLAYER
 49
-0.5
 62
256
  6
BYLAYER
  0
MLEADERSTYLE
  5
2C
102
{ACAD_REACTORS
330
F
102
}
330
F
100
AcDbMLeaderStyle
179
2
170
2
171
1
172
0
 90
2
 40
0.0
 41
0.0
173
1
 91
-1056964608
 92
-2
290
1
 42
2.0
291
1
 43
8.0
  3
Standard
 44
4.0
300

342
29
174
1
175
1
176
0
178
1
 93
-1056964608
 45
4.0
292
0
297
0
 46
4.0
 94
-1056964608
 47
1.0
 49
1.0
140
1.0
294
1
141
0.0
177
0
142
1.0
295
0
296
0
143
3.75
271
0
272
9
273
9
  0
DICTIONARY
  5
2D
330
A
100
AcDbDictionary
280
1
281
1
  3
CREATED_BY_EZDXF
350
2E
  3
WRITTEN_BY_EZDXF
350
29A
  0
DICTIONARYVAR
  5
2E
330
2D
100
DictionaryVariables
280
0
  1
0.0 @ 2000-01-01T00:00:00.000000+00:00
  0
VISUALSTYLE
  5
5A
102
{ACAD_REACTORS
330
16
102
}
330
16
100
AcDbVisualStyle
  2
2dWireframe
 70
4
 90
0
 40
0.6
 62
7
290
0
291
0
  0
VISUALSTYLE
  5
5B
102
{ACAD_REACTORS
330
16
102
}
330
16
100
AcDbVisualStyle
  2
Basic
 70
7
 90
1
 40
0.6
 62
7
290
0
291
1
  0
VISUALSTYLE
  5
5C
102
{ACAD_REACTORS
330
16
102
}
330
16
100
AcDbVisualStyle
  2
Brighten
 70
12
 90
2
 40
0.6
 62
7
290
0
291
1
  0
VISUALSTYLE
  5
5D
102
{ACAD_REACTORS
330
16
102
}
330
16
100
AcDbVisualStyle
  2
ColorChange
 70
16
 90
2
 40
0.6
 62
8
290
0
291
1
  0
VISUALSTYLE
  5
5E
102
{ACAD_REACTORS
330
16
102
}
330
16
100
AcDbVisualStyle
  2
Conceptual
 70
9
 90
3
 40
0.6
 62
7
290
0
291
0
  0
VISUALSTYLE
  5
5F
102
{ACAD_REACTORS
330
16
102
}
330
16
100
AcDbVisualStyle
  2
Dim
 70
11
 90
2
 40
0.6
 62
7
290
0
291
1
  0
VISUALSTYLE
  5
60
102
{ACAD_REACTORS
330
16
102
}
330
16
100
AcDbVisualStyle
  2
EdgeColorOff
 70
22
 90
2
 40
0.6
 62
7
290
0
291
1
  0
VISUALSTYLE
  5
61
102
{ACAD_REACTORS
330
16
102
}
330
16
100
AcDbVisualStyle
  2
Facepattern
 70
15
 90
2
 40
0.6
 62
7
290
0
291
1
  0
VISUALSTYLE
  5
62
102
{ACAD_REACTORS
330
16
102
}
330
16
100
AcDbVisualStyle
  2
Flat
 70
0
 90
2
 40
0.6
 62
7
290
0
291
1
  0
VISUALSTYLE
  5
63
102
{ACAD_REACTORS
330
16
102
}
330
16
100
AcDbVisualStyle
  2
FlatWithEdges
 70
1
 90
2
 40
0.6
 62
7
290
0
291
1
  0
VISUALSTYLE
  5
64
102
{ACAD_REACTORS
330
16
102
}
330
16
100
AcDbVisualStyle
  2
Gouraud
 70
2
 90
2
 40
0.6
 62
7
290
0
291
1
  0
VISUALSTYLE
  5
65
102
{ACAD_REACTORS
330
16
102
}
330
16
100
AcDbVisualStyle
  2
GouraudWithEdges
 70
3
 90
2
 40
0.6
 62
7
290
0
291
1
  0
VISUALSTYLE
  5
66
102
{ACAD_REACTORS
330
16
102
}
330
16
100
AcDbVisualStyle
  2
Hidden
 70
6
 90
1
 40
0.6
 62
7
290
0
291
0
  0
VISUALSTYLE
  5
67
102
{ACAD_REACTORS
330
16
102
}
330
16
100
AcDbVisualStyle
  2
JitterOff
 70
20
 90
2
 40
0.6
 62
7
290
0
291
1
  0
VISUALSTYLE
  5
68
102
{ACAD_REACTORS
330
16
102
}
330
16
100
AcDbVisualStyle
  2
Linepattern
 70
14
 90
2
 40
0.6
 62
7
290
0
291
1
  0
VISUALSTYLE
  5
69
102
{ACAD_REACTORS
330
16
102
}
330
16
100
AcDbVisualStyle
  2
Modeling
 70
10
 90
2
 40
0.6
 62
7
290
0
291
0
  0
VISUALSTYLE
  5
6A
102
{ACAD_REACTORS
330
16
102
}
330
16
100
AcDbVisualStyle
  2
OverhangOff
 70
21
 90
2
 40
0.6
 62
7
290
0
291
1
  0
VISUALSTYLE
  5
6B
102
{ACAD_REACTORS
330
16
102
}
330
16
100
AcDbVisualStyle
  2
Realistic
 70
8
 90
2
 40
0.6
 62
7
290
0
291
0
  0
VISUALSTYLE
  5
6C
102
{ACAD_REACTORS
330
16
102
}
330
16
100
AcDbVisualStyle
  2
Shaded
 70
27
 90
2
 40
0.6
 62
7
290
0
291
0
  0
VISUALSTYLE
  5
6D
102
{ACAD_REACTORS
330
16
102
}
330
16
100
AcDbVisualStyle
  2
Shaded with edges
 70
26
 90
2
 40
0.6
 62
7
290
0
291
0
  0
VISUALSTYLE
  5
6E
102
{ACAD_REACTORS
330
16
102
}
330
16
100
AcDbVisualStyle
  2
Shades of Gray
 70
23
 90
2
 40
0.6
 62
7
290
0
291
0
  0
VISUALSTYLE
  5
6F
102
{ACAD_REACTORS
330
16
102
}
330
16
100
AcDbVisualStyle
  2
Sketchy
 70
24
 90
1
 40
0.6
 62
7
290
0
291
0
  0
VISUALSTYLE
  5
70
102
{ACAD_REACTORS
330
16
102
}
330
16
100
AcDbVisualStyle
  2
Thicken
 70
13
 90
2
 40
0.6
 62
7
290
0
291
1
  0
VISUALSTYLE
  5
71
102
{ACAD_REACTORS
330
16
102
}
330
16
100
AcDbVisualStyle
  2
Wireframe
 70
5
 90
0
 40
0.6
 62
7
290
0
291
0
  0
VISUALSTYLE
  5
72
102
{ACAD_REACTORS
330
16
102
}
330
16
100
AcDbVisualStyle
  2
X-Ray
 70
25
 90
2
 40
0.5
 62
7
290
0
291
0
  0
DICTIONARYVAR
  5
29A
330
2D
100
DictionaryVariables
280
0
  1
0.0 @ 2000-01-01T00:00:00.000000+00:00
  0
ENDSEC
  0
EOF
